<?xml version="1.0" standalone="no"?>
<!DOCTYPE svg PUBLIC "-//W3C//DTD SVG 1.1//EN" "http://www.w3.org/Graphics/SVG/1.1/DTD/svg11.dtd" >
<svg xmlns="http://www.w3.org/2000/svg" xmlns:xlink="http://www.w3.org/1999/xlink" version="1.1">
<metadata>
Created by FontForge 20200427 at Thu Oct 24 21:51:47 2013
 By www
Copyright (c) 2013 by Moinzek. All rights reserved.
</metadata>
<defs>
<font id="Glamor-Condensed" horiz-adv-x="688" >
  <font-face 
    font-family="Glamor Cond"
    font-weight="400"
    font-stretch="condensed"
    units-per-em="1000"
    panose-1="0 0 0 0 0 0 0 0 0 0"
    ascent="702"
    descent="-298"
    x-height="406"
    cap-height="706"
    bbox="-67 -300 984 906"
    underline-thickness="4"
    underline-position="-449"
    unicode-range="U+0002-2122"
  />
<missing-glyph horiz-adv-x="800" 
 />
    <glyph glyph-name=".notdef" horiz-adv-x="800" 
 />
    <glyph glyph-name="NULL" horiz-adv-x="0" 
 />
    <glyph glyph-name="NULL" horiz-adv-x="0" 
 />
    <glyph glyph-name="nonmarkingreturn" unicode="&#xd;" horiz-adv-x="0" 
 />
    <glyph glyph-name="space" unicode=" " horiz-adv-x="240" 
 />
    <glyph glyph-name="uni0002" horiz-adv-x="370" 
d="M346 0h-90v390h-232v16h322v-406z" />
    <glyph glyph-name="exclam" unicode="!" horiz-adv-x="132" 
d="M61 200v503h11v-503h-11zM66 0q-17 0 -29.5 17t-12.5 40t12.5 40t29.5 17t29.5 -17t12.5 -40t-12.5 -40t-29.5 -17z" />
    <glyph glyph-name="quotedbl" unicode="&#x22;" horiz-adv-x="292" 
d="M181 550v15q47 0 65 39q-12 -7 -22 -7q-19 0 -32 15.5t-13 38.5t13 39t32 16q18 0 31 -16t13 -39q0 -45 -23.5 -73t-63.5 -28zM69 550q-19 0 -32 15.5t-13 38.5q0 45 24 73t63 29v-15q-46 0 -64 -40q10 8 22 8q18 0 31.5 -16t13.5 -39t-13.5 -38.5t-31.5 -15.5z" />
    <glyph glyph-name="numbersign" unicode="#" horiz-adv-x="368" 
d="M286 293l-36 -180h94v-15h-97l-19 -97l-12 4l19 93h-144l-19 -97l-12 4l19 93h-55v15h58l36 180h-94v15h97l19 97l12 -4l-19 -93h144l19 97l12 -4l-19 -93h55v-15h-58zM130 293l-36 -180h144l36 180h-144z" />
    <glyph glyph-name="dollar" unicode="$" horiz-adv-x="452" 
d="M229 707q37 0 59.5 -31t22.5 -76q0 -24 -13.5 -40.5t-32.5 -16.5q-21 0 -36 23v-57q95 -6 147 -65.5t52 -189.5q0 -53 -15.5 -98.5t-42.5 -80t-63 -54.5t-78 -21v-96h-12v96q-68 2 -114.5 45t-67.5 125q-5 20 -8 41.5t-3 42.5q0 23 13 40t32 17t32.5 -17t13.5 -40
t-13.5 -40t-32.5 -17q-17 0 -29 14q13 -89 58 -141t119 -55v479q-34 5 -54.5 32.5t-20.5 73.5t20.5 73.5t54.5 32.5v97h12v-96zM229 691v-57q15 23 36 23q13 0 24 -8q-10 19 -26 31t-34 11zM217 690q-29 -5 -46 -28t-17 -62t17 -62t46 -28v180zM338 353q0 60 -31 97.5
t-78 42.5v-478q23 1 43 12t34.5 30t23 44t8.5 54v198z" />
    <glyph glyph-name="percent" unicode="%" horiz-adv-x="292" 
d="M108 493q-17 0 -32.5 8.5t-27 23t-18 33.5t-6.5 41t6.5 41.5t18 33.5t26.5 22.5t33 8.5q35 0 59 -30.5t24 -75.5q0 -22 -6.5 -41t-18 -33.5t-26.5 -23t-32 -8.5zM34 0l-11 6l235 699l11 -6zM185 0q-17 0 -32.5 8.5t-27 23t-18 33.5t-6.5 41q0 45 24.5 75.5t59.5 30.5
t59 -30.5t24 -75.5q0 -44 -24 -75t-59 -31zM140 649q0 17 -9.5 29t-22.5 12q-14 0 -23.5 -12t-9.5 -29v-99q0 -17 9.5 -29.5t23.5 -12.5t23 12t9 30v99zM218 155q0 17 -9.5 29.5t-23.5 12.5t-23.5 -12.5t-9.5 -29.5v-98q0 -17 9.5 -29.5t23.5 -12.5t23.5 11.5t9.5 30.5v98z
" />
    <glyph glyph-name="ampersand" unicode="&#x26;" horiz-adv-x="492" 
d="M423 197q-19 0 -32.5 17t-13.5 40q0 14 7 30q-16 -12 -25 -33.5t-9 -45.5q0 -44 -12 -81.5t-33.5 -65t-51.5 -43t-66 -15.5q-35 0 -65 15t-51.5 42t-34 64t-12.5 81q0 46 12 84.5t33.5 66t52 42.5t67.5 15q39 0 61 -29.5t22 -77.5q0 -23 -13.5 -39.5t-32.5 -16.5
t-32 16.5t-13 39.5q0 24 13 40.5t32 16.5q13 0 23 -7q-17 41 -62 41q-30 0 -51 -26.5t-21 -64.5v-197q0 -38 21 -64.5t51 -26.5q34 0 61.5 14.5t47.5 40t31 60t11 75.5q0 36 -10 65.5t-26 54.5t-37 47t-43 43q-18 17 -39 36.5t-39 42t-30 48.5t-12 57q0 47 23.5 77t61.5 30
q40 0 62.5 -28.5t22.5 -78.5q0 -23 -13.5 -40t-32.5 -17t-32 17t-13 40q0 24 13 40.5t32 16.5q13 0 23 -7q-18 41 -62 41q-32 0 -52 -25t-20 -66q0 -27 11 -50.5t27.5 -44.5t35 -38.5t34.5 -32.5q19 -18 38.5 -37.5t36.5 -41.5t29.5 -48t18.5 -56q20 61 77 61q19 0 32 -16.5
t13 -40.5q0 -23 -13 -40t-32 -17z" />
    <glyph glyph-name="quotesingle" unicode="'" horiz-adv-x="132" 
d="M26 550v15q44 0 61 39q-11 -7 -21 -7q-17 0 -29.5 15.5t-12.5 38.5t12.5 39t29.5 16q18 0 30 -16t12 -39q0 -45 -22 -73t-60 -28z" />
    <glyph glyph-name="parenleft" unicode="(" horiz-adv-x="290" 
d="M24 353q0 64 16.5 127t48 113t76 81t101.5 32v-16q-32 0 -60 -15t-48.5 -40.5t-32.5 -60t-12 -73.5v-296q0 -39 12 -74t32.5 -60.5t48.5 -40.5t60 -15v-15q-62 0 -107.5 29t-75.5 77.5t-44.5 112.5t-14.5 134z" />
    <glyph glyph-name="parenright" unicode=")" horiz-adv-x="290" 
d="M24 0v15q32 0 60 15t48.5 40.5t32.5 60.5t12 74v296q0 39 -12 73.5t-32.5 60t-48.5 40.5t-60 15v16q57 -1 101.5 -32t76 -81t48 -113t16.5 -127t-16.5 -127t-48 -113.5t-76 -81.5t-101.5 -31z" />
    <glyph glyph-name="asterisk" unicode="*" horiz-adv-x="212" 
d="M155 564l-26 31h-17v-21l26 -32q0 -19 -9 -30.5t-23 -11.5t-22.5 11.5t-8.5 30.5l25 32v21h-17l-25 -31q-15 0 -24.5 10.5t-9.5 28.5t9.5 28.5t24.5 10.5l25 -32h17v21l-25 32q0 19 8.5 31t22.5 12t23 -12t9 -31l-26 -32v-21h17l26 32q15 0 24 -10.5t9 -28.5t-9 -28.5
t-24 -10.5z" />
    <glyph glyph-name="plus" unicode="+" horiz-adv-x="368" 
d="M190 192v-192h-12v192h-154v16h154v192h12v-192h154v-16h-154z" />
    <glyph glyph-name="comma" unicode="," horiz-adv-x="132" 
d="M26 -49v15q44 0 61 38q-9 -6 -21 -6q-17 0 -29.5 15t-12.5 38t12.5 39t29.5 16t29.5 -16t12.5 -39q0 -46 -21.5 -73t-60.5 -27z" />
    <glyph glyph-name="hyphen" unicode="-" horiz-adv-x="368" 
d="M24 200v6h320v-6h-320z" />
    <glyph glyph-name="period" unicode="." horiz-adv-x="132" 
d="M66 0q-17 0 -29.5 15.5t-12.5 37.5t12.5 37.5t29.5 15.5t29.5 -15.5t12.5 -37.5t-12.5 -37.5t-29.5 -15.5z" />
    <glyph glyph-name="slash" unicode="/" horiz-adv-x="292" 
d="M34 -1l-11 5q60 177 117.5 350t117.5 350l11 -6z" />
    <glyph glyph-name="zero" unicode="0" horiz-adv-x="372" 
d="M186 0q-31 0 -54.5 18t-41.5 48t-30.5 68t-20.5 77t-11.5 76t-3.5 66q0 28 3.5 65.5t11.5 76.5t20.5 77t30.5 68t42 48t54 18t54 -18t42 -48t30.5 -68t20.5 -77t11.5 -76.5t3.5 -65.5q0 -29 -3.5 -66t-11.5 -76t-20.5 -77t-30.5 -68t-42 -48t-54 -18zM258 599
q0 38 -21 64.5t-51 26.5q-15 0 -28 -7t-22.5 -19.5t-15.5 -29t-6 -35.5v-99q0 -24 5 -42.5t14 -34t21 -29t25 -25.5q23 -21 44.5 -43.5t34.5 -54.5v328zM258 206q0 29 -8 51t-21 40t-29.5 33t-32.5 31t-30 33.5t-23 40.5v-329q0 -19 6 -35.5t15.5 -29t22.5 -19.5t28 -7
q30 0 51 26.5t21 64.5v100z" />
    <glyph glyph-name="one" unicode="1" horiz-adv-x="288" 
d="M24 0v15h75v675h-75v16h131h34v-691h75v-15h-240z" />
    <glyph glyph-name="two" unicode="2" horiz-adv-x="372" 
d="M265 0h-241q0 52 13.5 89.5t35.5 67.5t50.5 54.5t59.5 49.5q13 10 26 26t24 35t18 39.5t7 40.5v197q0 39 -21.5 65t-51.5 26q-59 0 -95.5 -38t-48.5 -107q13 13 28 13q19 0 32 -17t13 -40q0 -24 -13 -40.5t-32 -16.5q-25 0 -35 20t-10 46q0 94 44 144.5t117 50.5
q36 0 66 -15t51.5 -42.5t33.5 -65.5t12 -84q0 -47 -13.5 -83t-35.5 -65t-50.5 -53.5t-57.5 -47.5q-26 -21 -53 -43.5t-49.5 -50t-37 -62t-15.5 -78.5h228q20 0 36.5 11.5t26.5 31.5q-11 -9 -24 -9q-18 0 -31.5 17t-13.5 40q0 24 13.5 40.5t31.5 16.5q22 0 34 -18t12 -43
q0 -49 -23 -75.5t-61 -26.5z" />
    <glyph glyph-name="three" unicode="3" horiz-adv-x="372" 
d="M185 0q-36 0 -66 14.5t-51 41.5t-32.5 65t-11.5 84q0 25 12.5 41t32.5 16q19 0 32 -17t13 -40t-13 -40t-32 -17q-15 0 -28 13q12 -69 48.5 -107.5t95.5 -38.5q30 0 51.5 26.5t21.5 64.5v197q0 41 -20 66t-52 25q-12 0 -24.5 -3t-23 -10.5t-17.5 -19.5t-7 -30h-12
q0 24 8.5 38.5t21 23t26.5 12t26 5.5q24 2 39.5 18t15.5 48v148q0 29 -15 47.5t-38 18.5q-53 0 -68 -61q4 3 10 3q11 0 18 -9.5t7 -23.5q0 -13 -7 -22.5t-18 -9.5t-18.5 9.5t-7.5 22.5q0 47 22.5 77t60.5 30q26 0 48.5 -12t39.5 -33t26.5 -49.5t9.5 -61.5q0 -51 -23 -91
t-60 -56q27 -9 49 -27.5t38.5 -45t25.5 -58.5t9 -67q0 -45 -12 -83t-34 -65t-51.5 -42t-65.5 -15z" />
    <glyph glyph-name="four" unicode="4" horiz-adv-x="374" 
d="M272 197v-197h-90v197h-161l242 509l10 -8l-231 -485l226 -1q42 0 60 42q-11 -8 -23 -8q-19 0 -32 17t-13 40q0 24 13 40.5t32 16.5t32 -16.5t13 -39.5q0 -45 -21.5 -75t-56.5 -32z" />
    <glyph glyph-name="five" unicode="5" horiz-adv-x="372" 
d="M186 0q-35 0 -65 14.5t-51.5 40.5t-33.5 63t-12 82q0 25 12 43.5t33 18.5q19 0 32 -17t13 -40t-13 -40t-32 -17q-15 0 -28 13q12 -70 49 -108t96 -38q30 0 51 26.5t21 64.5v198q0 18 -5.5 34.5t-15 29t-22 19.5t-27.5 7h-86v213h86q14 0 27.5 3.5t24.5 14.5
q-14 -2 -24 10.5t-10 29.5t9.5 29t22.5 12q14 0 23 -12t9 -29q0 -20 -7.5 -33.5t-19 -22.5t-25.5 -13t-26 -4v-183q33 -3 61.5 -19t49.5 -43t33 -63t12 -79q0 -42 -12.5 -79.5t-34.5 -65.5t-51.5 -44t-63.5 -16z" />
    <glyph glyph-name="six" unicode="6" horiz-adv-x="373" 
d="M187 0q-33 0 -62.5 14t-51.5 39.5t-35 60.5t-14 78q-2 77 -1 153t1 153q0 97 42.5 152.5t120.5 55.5q38 0 61 -30t23 -77q0 -24 -13.5 -40.5t-31.5 -16.5q-19 0 -32 17t-13 40q0 24 13 40.5t32 16.5q12 0 22 -7q-18 41 -61 41q-32 0 -52 -24.5t-20 -65.5v-240
q21 50 72 50q33 0 62.5 -16.5t51.5 -44t35 -65t13 -79.5t-13 -79.5t-35 -65.5t-51.5 -44t-62.5 -16zM259 304q0 19 -6 35.5t-15.5 29t-22.5 19.5t-28 7q-32 0 -52 -25.5t-20 -65.5q0 -31 19 -50t45 -36q20 -12 43 -27.5t37 -38.5v152zM194 191q-20 13 -42.5 28.5t-36.5 38.5
v-152q0 -38 21 -64.5t51 -26.5t51 27t21 65q0 29 -19 48t-46 36z" />
    <glyph glyph-name="seven" unicode="7" horiz-adv-x="375" 
d="M113 0h-91l234 690h-147q-43 0 -61 -41q10 7 22 7q19 0 32 -16.5t13 -40.5q0 -23 -13 -40t-32 -17q-20 0 -32 16.5t-13 40.5q-1 48 22.5 77.5t61.5 29.5h244z" />
    <glyph glyph-name="eight" unicode="8" horiz-adv-x="372" 
d="M186 0q-33 0 -62.5 16.5t-51.5 44t-35 65t-13 79.5q0 35 9 67t25.5 58.5t38.5 45t49 27.5q-37 16 -60 56t-23 91q0 32 9.5 60.5t26.5 49.5t39 33.5t48 12.5q25 0 47.5 -12.5t39.5 -33.5t26.5 -49.5t9.5 -60.5q0 -51 -23 -91t-60 -56q27 -9 49 -27.5t38.5 -45t25.5 -58.5
t9 -67q0 -47 -11.5 -84.5t-32.5 -64.5t-51 -41.5t-67 -14.5zM239 624q0 28 -15.5 47t-37.5 19t-37 -19.5t-15 -46.5q0 -21 13 -35t33 -26q14 -10 31 -21t28 -27v109zM192 537q-14 10 -30.5 21t-27.5 27v-109q0 -28 15 -47t37 -19q23 0 38 18.5t15 47.5q0 21 -13.5 35
t-33.5 26zM258 303q0 38 -21 64.5t-51 26.5q-15 0 -28 -7t-22.5 -19.5t-15.5 -29t-6 -35.5q0 -30 19 -49t45 -36q20 -12 43 -27.5t37 -38.5v151zM194 191q-20 13 -43 28.5t-37 38.5v-152q0 -18 6 -34.5t15.5 -29t22.5 -20t28 -7.5q30 0 51 26.5t21 64.5q0 30 -19 49t-45 36z
" />
    <glyph glyph-name="nine" unicode="9" horiz-adv-x="373" 
d="M348 207q0 -94 -43 -150.5t-119 -56.5q-38 0 -61 29.5t-23 76.5q0 24 13 40.5t32 16.5t32 -16.5t13 -40.5q0 -23 -13 -40t-32 -17q-12 0 -22 8q18 -42 61 -42q32 0 52 26t20 66v238q-21 -49 -72 -49q-33 0 -62.5 16t-51.5 44t-35 65.5t-13 79.5t13 79.5t35 65.5t51.5 44
t62.5 16t62.5 -14t51 -39.5t34.5 -61t14 -78.5q2 -76 1 -152.5t-1 -153.5zM186 690q-30 0 -51 -26.5t-21 -64.5q0 -30 19 -49t46 -36q20 -12 42.5 -27.5t36.5 -38.5v151q0 38 -21 64.5t-51 26.5zM194 487q-20 13 -43 28.5t-37 38.5v-152q0 -38 21 -64.5t51 -26.5
q32 0 52 25.5t20 65.5q0 30 -19 49t-45 36z" />
    <glyph glyph-name="colon" unicode=":" horiz-adv-x="132" 
d="M66 293q-17 0 -29.5 16.5t-12.5 39.5t12.5 40t29.5 17t29.5 -17t12.5 -40t-12.5 -39.5t-29.5 -16.5zM66 0q-17 0 -29.5 16.5t-12.5 39.5t12.5 40t29.5 17t29.5 -17t12.5 -40t-12.5 -39.5t-29.5 -16.5z" />
    <glyph glyph-name="semicolon" unicode=";" horiz-adv-x="132" 
d="M66 292q-17 0 -29.5 17t-12.5 40t12.5 40t29.5 17t29.5 -17t12.5 -40t-12.5 -40t-29.5 -17zM26 -49v15q44 0 61 41q-8 -7 -21 -7q-17 0 -29.5 16t-12.5 39q0 24 12.5 40.5t29.5 16.5t29.5 -17t12.5 -40q0 -45 -22.5 -74.5t-59.5 -29.5z" />
    <glyph glyph-name="less" unicode="&#x3c;" horiz-adv-x="213" 
d="M182 0l-160 203l160 204l8 -11l-151 -193l151 -194z" />
    <glyph glyph-name="equal" unicode="=" horiz-adv-x="368" 
d="M24 291v15h320v-15h-320zM24 100v15h320v-15h-320z" />
    <glyph glyph-name="greater" unicode="&#x3e;" horiz-adv-x="213" 
d="M31 0l-9 9l151 194l-151 193l9 11l159 -204z" />
    <glyph glyph-name="question" unicode="?" horiz-adv-x="372" 
d="M192 286v-86h-12v111q34 0 56 26t22 65v198q0 40 -20.5 65t-52.5 25q-59 0 -95.5 -38t-48.5 -107q13 13 28 13q19 0 32 -17t13 -40q0 -24 -13 -40.5t-32 -16.5q-20 0 -32.5 17t-12.5 41q0 45 11 82.5t32 64.5t51 42t67 15t67.5 -14.5t51.5 -41.5t32.5 -65t11.5 -85
q0 -41 -12 -79t-33 -67.5t-49.5 -47.5t-61.5 -20zM186 0q-19 0 -32 17t-13 40t13 40t32 17t32 -17t13 -40t-13 -40t-32 -17z" />
    <glyph glyph-name="at" unicode="@" horiz-adv-x="508" 
d="M412 -99h-158q-50 0 -94 23.5t-77 64.5t-52 96t-19 118t19 118t52 96t77 64.5t94 23.5t94 -23.5t77 -64.5t52 -96t19 -118q0 -57 -16 -109t-47 -95h-106v21q-35 -21 -73 -21q-33 0 -63 16t-52 44t-35 65t-13 79t13 79.5t35 65t51.5 43.5t63.5 16q38 0 73 -21v32l91 -114
v-290h9q28 39 42.5 87.5t14.5 101.5q0 59 -18 111.5t-49.5 91.5t-73 61.5t-89.5 22.5t-89.5 -22.5t-73 -61.5t-49.5 -91.5t-18 -111.5q0 -60 18 -112t49.5 -91t73 -61.5t89.5 -22.5h158q12 0 27 4.5t26 13.5h-1q-14 0 -23 11.5t-9 28.5t9 28.5t23 11.5t23 -11.5t9 -28.5
q0 -20 -8.5 -34t-21.5 -22.5t-27.5 -12.5t-26.5 -4zM327 302q0 38 -21.5 64t-51.5 26t-51 -26.5t-21 -64.5v-197q0 -38 21 -64t51 -26t51.5 26t21.5 63v199z" />
    <glyph glyph-name="A" unicode="A" 
d="M419 0v15h74l-97 281h-183l-97 -281h74v-15h-166v15h79q60 174 120 347t121 356l241 -703h79v-15h-245zM304 563l-86 -252h173z" />
    <glyph glyph-name="B" unicode="B" horiz-adv-x="530" 
d="M342 0h-318v15h76v675h-76v16h279q27 0 50 -12t39.5 -33t26 -49.5t9.5 -61.5q0 -47 -20.5 -85t-52.5 -57q30 -4 57.5 -21.5t48 -45.5t33 -63t12.5 -73q0 -43 -13 -80.5t-35 -65t-52 -43.5t-64 -16zM356 624q0 30 -14.5 48t-38.5 18h-112v-280h112q23 0 38 19t15 47v148z
M415 306q0 38 -20 63t-52 25h-152v-379h151q73 0 73 91v200z" />
    <glyph glyph-name="C" unicode="C" horiz-adv-x="452" 
d="M265 0q-56 0 -100.5 31t-75.5 81.5t-48 113.5t-17 127t17 127t48 113t75.5 81.5t100.5 31.5q36 0 66 -15t51.5 -42.5t33.5 -65t12 -82.5q0 -23 -13.5 -40t-31.5 -17q-19 0 -32 16.5t-13 40.5q0 23 13 40t32 17q16 0 29 -13q-13 69 -50 107t-97 38q-32 0 -59 -14.5
t-47.5 -40t-32 -60t-11.5 -74.5v-296q0 -39 12 -73.5t32.5 -60.5t47.5 -41t58 -15q35 0 63 14.5t47.5 41t30 62t10.5 77.5h12q0 -45 -11 -83t-32.5 -66.5t-52 -44.5t-67.5 -16z" />
    <glyph glyph-name="D" unicode="D" horiz-adv-x="530" 
d="M264 0h-240v15h77v675h-77v16h240q56 0 101 -31.5t76.5 -81.5t48 -113t16.5 -127t-16.5 -127t-48 -113.5t-76.5 -81.5t-101 -31zM415 501q0 42 -11 77t-30.5 60t-47.5 38.5t-61 13.5h-74v-675h73q31 0 59 15t48.5 40.5t32.5 60t12 74.5q0 74 -0.5 147.5t-0.5 148.5z" />
    <glyph glyph-name="E" unicode="E" horiz-adv-x="450" 
d="M342 0h-318v15h76v675h-76v15h318q37 0 60.5 -30t23.5 -81h-12q-3 42 -21 69t-50 27h-152v-330h155v-15h-155v-330h151q43 0 61 42q-10 -8 -22 -8q-19 0 -32 17t-13 40q0 24 13 40.5t32 16.5t32 -16.5t13 -40.5q0 -46 -23.5 -76t-60.5 -30z" />
    <glyph glyph-name="F" unicode="F" horiz-adv-x="450" 
d="M381 542q-19 0 -32 17t-13 40q0 24 13 40.5t32 16.5q11 0 22 -7q-18 41 -62 41h-150v-330h155v-15h-155v-330h76v-15h-243v15h76v675h-76v16h318q37 0 60.5 -30t23.5 -77q0 -23 -13.5 -40t-31.5 -17z" />
    <glyph glyph-name="G" unicode="G" horiz-adv-x="532" 
d="M266 0q-56 0 -101 31t-76.5 81.5t-48 113.5t-16.5 127t17 127t48.5 113t76 81t100.5 31q36 0 66.5 -15.5t52 -42.5t33.5 -64.5t12 -81.5q0 -24 -13.5 -40.5t-32.5 -16.5t-32 16.5t-13 40.5q0 23 13 40t32 17q16 0 29 -13q-12 69 -49.5 107t-97.5 38q-33 0 -60.5 -14
t-47.5 -39.5t-31.5 -60t-11.5 -75.5v-296q0 -39 12 -74t32 -60.5t47.5 -40.5t59.5 -15q31 0 59 15t48.5 40.5t32.5 60.5t12 74v140h-156v15h246q0 -66 -16.5 -130.5t-47.5 -115.5t-76 -82.5t-102 -31.5z" />
    <glyph glyph-name="H" unicode="H" horiz-adv-x="608" 
d="M507 690v-675h77v-15h-244v15h76v330h-224v-330h77v-15h-245v15h77v675h-77v16h245v-16h-77v-330h224v330h-76v16h244v-16h-77z" />
    <glyph glyph-name="I" unicode="I" horiz-adv-x="288" 
d="M24 0v15h75v675h-75v16h240v-16h-75v-675h75v-15h-240z" />
    <glyph glyph-name="J" unicode="J" horiz-adv-x="450" 
d="M350 690v-436q0 -54 -15.5 -100.5t-42.5 -80.5t-64 -53.5t-80 -19.5q-27 0 -50 11.5t-39.5 32t-25.5 49t-9 62.5q0 24 13 41t32 17t32.5 -17t13.5 -40q0 -24 -13.5 -40.5t-32.5 -16.5q-14 0 -27 11q11 -45 37 -70t66 -25q24 0 45 10.5t36 29.5t24 45t9 56v534h-76v16h243
v-16h-76z" />
    <glyph glyph-name="K" unicode="K" horiz-adv-x="608" 
d="M340 0v15h70l-176 294l-42 -106v-188h77v-15h-245v15h77v675h-77v16h245v-16h-77v-453l146 366q6 16 16.5 34t24 33.5t29 25.5t31.5 10q19 0 32 -9.5t21 -24.5t11.5 -34t3.5 -39q0 -23 -13.5 -40t-31.5 -17q-19 0 -32.5 17t-13.5 40q0 24 13.5 40.5t32.5 16.5
q16 0 28 -12q-6 21 -18.5 33.5t-32.5 12.5q-14 0 -27.5 -9t-25.5 -23t-21.5 -30.5t-15.5 -31.5l-77 -193l232 -388h80v-15h-244z" />
    <glyph glyph-name="L" unicode="L" horiz-adv-x="450" 
d="M342 0h-318v15h76v675h-76v15h167v-690h151q43 0 61 42q-10 -8 -22 -8q-19 0 -32 17t-13 40q0 24 13 40.5t32 16.5t32 -16.5t13 -40.5q0 -47 -23.5 -76.5t-60.5 -29.5z" />
    <glyph glyph-name="M" unicode="M" horiz-adv-x="768" 
d="M667 690v-675h77v-15h-245v15h77v650q-63 -156 -125 -311t-125 -311l-213 618v-646h77v-15h-166v15h77v675h-77v16h166l179 -521l209 521h166v-16h-77z" />
    <glyph glyph-name="N" unicode="N" horiz-adv-x="608" 
d="M340 0v15h72l-299 654v-654h77v-15h-166v15h77v675h-77v16h165l306 -669v653h-77v16h166v-16h-77v-675h77v-15h-244z" />
    <glyph glyph-name="O" unicode="O" horiz-adv-x="532" 
d="M266 0q-56 0 -100.5 31t-76 81.5t-48.5 113.5t-17 127t17 127t48.5 113t76 81.5t100.5 31.5t101 -31.5t76.5 -81.5t48 -113t16.5 -127t-16.5 -127t-48 -113.5t-76.5 -81.5t-101 -31zM418 501q0 39 -12 73.5t-32.5 60t-48.5 40.5t-59 15t-58.5 -15t-48 -40.5t-32.5 -60
t-12 -73.5v-296q0 -39 12 -74t32 -60.5t47.5 -40.5t59.5 -15q31 0 59 15t48.5 40.5t32.5 60.5t12 74v296z" />
    <glyph glyph-name="P" unicode="P" horiz-adv-x="530" 
d="M343 296h-152v-281h77v-15h-244v15h77v675h-77v16h319q34 0 63.5 -16t51.5 -44t35 -65.5t13 -79.5t-13 -79.5t-35 -65.5t-51.5 -44t-63.5 -16zM343 690h-152v-379h151q33 0 53 24.5t20 66.5v197q0 38 -21 64.5t-51 26.5z" />
    <glyph glyph-name="Q" unicode="Q" horiz-adv-x="532" 
d="M372 33q-26 -23 -43 -54.5t-17 -71.5t20 -65.5t52 -25.5q44 0 62 42q-8 -7 -22 -7q-19 0 -32.5 16.5t-13.5 40.5q0 23 13.5 40t32.5 17t32 -17t13 -41q0 -47 -23.5 -76.5t-61.5 -29.5q-41 0 -63 31t-22 81q0 32 9.5 55.5t25.5 43.5q-32 -13 -68 -13q-56 0 -100.5 31
t-76 81.5t-48.5 113.5t-17 127t17 127.5t48.5 113.5t76 81.5t100.5 31.5t101 -31.5t76.5 -81.5t48 -113.5t16.5 -127.5q0 -107 -34.5 -183.5t-101.5 -135.5zM418 500q0 39 -12 74t-32.5 60.5t-48.5 40.5t-59 15t-58.5 -15t-48 -40.5t-32.5 -60.5t-12 -74v-297q0 -39 12 -74
t32 -60.5t47.5 -40.5t59.5 -15q31 0 59 15t48.5 40.5t32.5 60.5t12 74v297z" />
    <glyph glyph-name="R" unicode="R" horiz-adv-x="690" 
d="M365 706q30 0 56 -14.5t45.5 -39t30.5 -57.5t11 -70q0 -57 -26 -103t-69 -66q24 -7 44.5 -23t35 -39t23 -51.5t9.5 -59.5q1 -26 1 -51v-50q0 -29 16 -48t39 -19q20 0 37 11.5t27 31.5q-12 -9 -24 -9q-19 0 -32.5 17t-13.5 40q0 24 13.5 40.5t32.5 16.5q18 0 31.5 -17
t13.5 -40q0 -47 -24 -76.5t-61 -29.5q-30 0 -56.5 14t-46.5 38.5t-32 57.5t-12 70v99q0 27 -15 46.5t-37 19.5h-190v-330h77v-15h-245v15h77v675h-77v15q86 0 170.5 0.5t170.5 0.5zM417 624q0 28 -15 47t-38 19h-172v-330h172q10 0 19.5 5.5t17 15t12 21.5t4.5 25v197z" />
    <glyph glyph-name="S" unicode="S" horiz-adv-x="452" 
d="M226 0q-47 0 -84 18.5t-63.5 52.5t-40.5 80.5t-14 102.5q0 23 13 40t32 17t32.5 -16.5t13.5 -40.5q0 -23 -13.5 -40t-32.5 -17q-17 0 -29 14q13 -91 60.5 -143.5t125.5 -52.5q23 0 43.5 11t35.5 30t24 45t9 55v197q0 64 -30.5 101.5t-81.5 38.5q-37 1 -60.5 29.5
t-23.5 76.5t23 77.5t61 29.5t61.5 -28.5t23.5 -78.5q0 -23 -13.5 -40t-32.5 -17q-18 0 -31.5 17t-13.5 40q0 24 13.5 40.5t31.5 16.5q13 0 24 -8q-10 20 -26.5 31t-36.5 11q-32 0 -52 -25t-20 -66q0 -40 20 -65.5t52 -25.5q42 0 79 -20t64 -54.5t43 -80.5t16 -99t-16 -99
t-43 -80.5t-64 -54.5t-79 -20z" />
    <glyph glyph-name="T" unicode="T" horiz-adv-x="610" 
d="M107 690q-42 0 -60 -42q11 8 23 8q19 0 32 -16.5t13 -40.5q0 -23 -13 -40t-32 -17q-20 0 -33 16.5t-13 40.5q0 47 23.5 76.5t61.5 29.5h477v-15h-234v-675h76v-15h-244v15h77v675h-154z" />
    <glyph glyph-name="U" unicode="U" 
d="M587 690v-340q0 -64 -16.5 -127t-48 -112.5t-76.5 -80t-102 -30.5q-58 0 -102.5 31t-75.5 81t-47.5 113t-17.5 128q-2 85 -1 168.5t1 168.5h-77v16h245v-16h-77v-485q0 -39 12 -74t32.5 -60.5t48 -40.5t59.5 -15q31 0 59 15t48.5 40.5t32.5 60.5t12 74v485h-77v16h245
v-16h-77z" />
    <glyph glyph-name="V" unicode="V" 
d="M585 690l-241 -701l-241 701h-79v16h245v-16h-74l188 -548l189 548h-74v16h166v-16h-79z" />
    <glyph glyph-name="W" unicode="W" horiz-adv-x="1008" 
d="M905 690l-242 -701l-159 459l-159 -459l-242 701h-79v16h246v-16h-74l189 -548l112 326l-76 222h-80v16h326v-16h-80l-37 -107l152 -441l189 548h-74v16h167v-16h-79zM513 690l31 -88l30 88h-61z" />
    <glyph glyph-name="X" unicode="X" horiz-adv-x="528" 
d="M260 0v15h73l-100 293q-27 -32 -49 -63.5t-38 -66.5t-24.5 -75t-8.5 -88h76v-15h-165v15h77q1 51 10 93.5t25.5 79t39.5 69.5t52 66l-125 367h-79v16h244v-16h-73l100 -293q27 31 49 63t38 67t24.5 75t8.5 88h-76v16h165v-16h-77q-1 -51 -10 -93t-25.5 -79t-39.5 -70
t-52 -66l125 -367h79v-15h-244z" />
    <glyph glyph-name="Y" unicode="Y" horiz-adv-x="528" 
d="M425 690l-116 -290v-385h77v-15h-244v15h77v385l-116 290h-79v16h244v-16h-73l108 -271l108 271h-72v16h165v-16h-79z" />
    <glyph glyph-name="Z" unicode="Z" horiz-adv-x="456" 
d="M121 15h225q43 0 61 42q-10 -8 -22 -8q-19 0 -32.5 17t-13.5 40q0 24 13.5 40.5t32.5 16.5t32 -16.5t13 -39.5q0 -49 -23 -78t-61 -29h-325l314 690h-225q-44 0 -62 -42q11 8 23 8q19 0 32 -16.5t13 -40.5q0 -23 -13 -40t-32 -17t-32 17t-13 40q0 47 23.5 77t60.5 30
l325 -1z" />
    <glyph glyph-name="bracketleft" unicode="[" horiz-adv-x="210" 
d="M24 0v706h162v-16h-74v-675h74v-15h-162z" />
    <glyph glyph-name="backslash" unicode="\" horiz-adv-x="292" 
d="M258 0l-235 699l11 6l235 -699z" />
    <glyph glyph-name="bracketright" unicode="]" horiz-adv-x="210" 
d="M24 0v15h74v675h-74v16h162v-706h-162z" />
    <glyph glyph-name="asciicircum" unicode="^" horiz-adv-x="211" 
d="M180 599l-74 90l-75 -90l-9 10l84 100l83 -100z" />
    <glyph glyph-name="underscore" unicode="_" horiz-adv-x="368" 
d="M24 -99v6h320v-6h-320z" />
    <glyph glyph-name="grave" unicode="`" horiz-adv-x="133" 
d="M66 597q-9 0 -21 7q18 -39 62 -39v-15q-38 0 -60.5 28t-22.5 73q0 23 12.5 39t29.5 16q18 0 30.5 -16t12.5 -39t-12.5 -38.5t-30.5 -15.5z" />
    <glyph glyph-name="a" unicode="a" horiz-adv-x="426" 
d="M247 0v21q-17 -10 -35 -15.5t-37 -5.5q-34 0 -64 16t-52 43.5t-34.5 64.5t-12.5 79t13 79t35 64.5t51.5 43.5t63.5 16q19 0 37 -5.5t35 -15.5v21h91v-391h76v-15h-167zM247 301q0 37 -21 63t-51 26t-51 -26t-21 -64v-195q0 -43 19 -66.5t53 -23.5q30 0 51 26t21 64v196z
" />
    <glyph glyph-name="b" unicode="b" horiz-adv-x="426" 
d="M251 0h-239v15h76v675h-76v16h167v-296q20 0 40.5 -0.5t40.5 -0.5q33 0 61 -16.5t48.5 -44t32.5 -64.5t12 -79q0 -43 -12.5 -80.5t-34.5 -65t-52 -43.5t-64 -16zM324 304q0 42 -19.5 66t-53.5 24h-72v-379h72q30 0 51.5 26.5t21.5 64.5v198z" />
    <glyph glyph-name="c" unicode="c" horiz-adv-x="268" 
d="M225 293q-14 0 -23 11.5t-9 28.5t9 28.5t23 11.5h1q-11 9 -25 13t-26 4q-30 0 -51.5 -26t-21.5 -64v-195q0 -18 5.5 -34.5t15.5 -29t22.5 -19.5t27.5 -7q13 0 27.5 4t25.5 14h-1q-14 0 -23 11.5t-9 28.5t9 28.5t23 11.5q13 0 22 -12t9 -29q0 -23 -8 -37t-20.5 -21.5
t-27 -10.5t-27.5 -3q-33 0 -62.5 16t-51.5 43.5t-34.5 64.5t-12.5 79q0 99 43 151t120 52q12 0 26.5 -4t26.5 -12.5t20 -22.5t8 -34q0 -17 -9 -28.5t-22 -11.5z" />
    <glyph glyph-name="d" unicode="d" horiz-adv-x="426" 
d="M175 0q-34 0 -63.5 16t-51.5 44t-35 65.5t-13 79.5q0 43 12.5 80.5t34.5 65.5t51.5 43.5t64.5 15.5h72v280h-76v15h167v-690h76v-15h-239zM247 394h-72q-14 0 -27 -8t-23 -20.5t-16 -29t-6 -33.5v-197q0 -38 21 -64.5t51 -26.5q18 0 36 0.5t36 -0.5v379z" />
    <glyph glyph-name="e" unicode="e" horiz-adv-x="348" 
d="M102 195v-90q0 -18 6 -34.5t15.5 -29t22.5 -19.5t28 -7q13 0 27.5 4.5t26.5 13.5q-1 0 -1 -0.5t-1 -0.5q-13 0 -22.5 12t-9.5 29t9.5 28.5t22.5 11.5q14 0 23 -11.5t9 -28.5q0 -21 -8.5 -35t-21 -22.5t-27.5 -12t-27 -3.5q-35 0 -64.5 15.5t-51.5 42.5t-34 64t-12 81
q0 42 13 78.5t35 64t51.5 43.5t62.5 16q35 0 65 -17t51.5 -45.5t33.5 -67t12 -80.5h-234zM246 300q0 39 -20 64.5t-52 25.5t-52 -25.5t-20 -64.5v-90h144v90z" />
    <glyph glyph-name="f" unicode="f" horiz-adv-x="346" 
d="M289 542q-19 0 -32 17t-13 40q0 24 13 40.5t32 16.5q13 0 23 -7q-20 41 -62 41q-35 0 -53.5 -23.5t-18.5 -67.5v-189h154v-16h-154v-379h76v-15h-242v15h76v379h-76v16h76v93q0 97 42 150t120 53q37 0 60.5 -30t23.5 -77q0 -23 -13 -40t-32 -17z" />
    <glyph glyph-name="g" unicode="g" horiz-adv-x="425" 
d="M337 389v-486q0 -44 -12 -80.5t-33.5 -63.5t-51.5 -42t-65 -15q-38 0 -61.5 29.5t-23.5 76.5q0 23 13.5 40t31.5 17q19 0 32.5 -17t13.5 -40q0 -24 -13.5 -40.5t-32.5 -16.5q-12 0 -22 7q10 -20 25 -31t35 -11q32 0 53 26t21 66v189h-72q-34 0 -64 15.5t-52 43
t-34.5 64.5t-12.5 80q0 42 13 79.5t35 65.5t51.5 44t63.5 16h37h24.5h22h30t48 -0.5t76.5 -0.5v-15h-76zM102 102q0 -30 7.5 -48.5t18.5 -28t25 -12.5t26 -3h13.5t20 0.5t20 0.5h14.5v378h-72q-30 0 -51.5 -26t-21.5 -64v-197z" />
    <glyph glyph-name="h" unicode="h" horiz-adv-x="504" 
d="M248 0v15h77v379q-19 -1 -39 -9.5t-39 -22t-36.5 -30t-31.5 -32.5v-300h-167v15h77v675h-77v16h167v-385q15 16 33 32t37.5 29t40 20.5t40.5 7.5q38 0 61.5 -30t23.5 -77v-288h77v-15h-244z" />
    <glyph glyph-name="i" unicode="i" horiz-adv-x="264" 
d="M132 492q-19 0 -32 17t-13 40t13 40t32 17t32 -17t13 -40t-13 -40t-32 -17zM12 0v15h75v379h-75v15h165v-394h75v-15h-240z" />
    <glyph glyph-name="j" unicode="j" horiz-adv-x="228" 
d="M131 491q-18 0 -31 17t-13 40t13 40t31 17q19 0 32 -17t13 -40t-13 -40t-32 -17zM15 -297q-36 0 -59 29.5t-23 76.5q0 23 13 40t32 17q17 0 30 -17t13 -40t-13 -40t-30 -17q-12 0 -22 7q9 -20 24 -31t34 -11q31 0 52 26t21 66v583h-76v16h165v-503q0 -44 -11.5 -81
t-33 -64t-51 -42t-65.5 -15z" />
    <glyph glyph-name="k" unicode="k" horiz-adv-x="424" 
d="M247 0v15h76q-1 28 -9.5 49t-21.5 38.5t-29 32.5t-31 30q-16 15 -30 32.5t-23 40.5v-238h-167v15h76v675h-76v15l167 1v-346q11 25 29.5 37.5t42.5 12.5q38 0 61.5 -30t23.5 -77q0 -23 -13.5 -39.5t-32.5 -16.5t-32 16.5t-13 39.5q0 24 13 40.5t32 16.5q13 0 23 -7
q-18 41 -62 41q-32 0 -52 -25t-20 -66q0 -37 13 -63.5t34 -49.5q18 -19 37 -36t34.5 -36.5t26 -44t11.5 -58.5h77v-15h-165z" />
    <glyph glyph-name="l" unicode="l" horiz-adv-x="264" 
d="M12 0v25h73v656h-73v25q42 0 83.5 -0.5t83.5 -0.5v-680h73v-25h-240z" />
    <glyph glyph-name="m" unicode="m" horiz-adv-x="744" 
d="M487 0v15h77v375q-20 -2 -40 -10.5t-39 -21t-36.5 -29t-30.5 -32.5v-297h-169v15h77v375q-19 -2 -39 -10.5t-39 -21t-36.5 -29t-31.5 -32.5v-297h-168v15h77v375h-77v16h168v-88q32 35 71.5 61.5t83.5 26.5q32 0 54.5 -26t27.5 -63q32 35 71 62t84 27q39 0 61 -29t22 -77
v-285h77v-15h-245z" />
    <glyph glyph-name="n" unicode="n" horiz-adv-x="504" 
d="M248 0v15h77v375q-19 -1 -39 -9.5t-39 -21.5t-36.5 -29.5t-31.5 -32.5v-297h-167v15h77v375h-77v16h167v-88q15 16 33 32t37.5 28.5t40.5 20t41 7.5q37 0 61 -29.5t24 -76.5l-1 -285h77v-15h-244z" />
    <glyph glyph-name="o" unicode="o" horiz-adv-x="348" 
d="M174 0q-33 0 -62 16.5t-51.5 44t-35.5 64.5t-13 78q0 42 13 79t35 64.5t51.5 43.5t62.5 16q34 0 63.5 -16t51.5 -43.5t34.5 -64.5t12.5 -79t-13 -78.5t-35 -64.5t-51.5 -44t-62.5 -16zM246 300q0 38 -21 64t-51 26q-15 0 -28 -7t-22.5 -19t-15.5 -28.5t-6 -35.5v-195
q0 -37 21 -63.5t51 -26.5t51 26.5t21 63.5v195z" />
    <glyph glyph-name="p" unicode="p" horiz-adv-x="425" 
d="M251 -3h-72v-295h-167v15h76v672h-76v16h239q35 0 65 -14.5t51.5 -40.5t33.5 -62.5t12 -81.5q0 -44 -12 -82t-33 -66.5t-51 -44.5t-66 -16zM323 298q0 19 -6 35.5t-15.5 29t-22.5 19.5t-28 7h-72v-378h72q33 0 52.5 24.5t19.5 66.5v196z" />
    <glyph glyph-name="q" unicode="q" horiz-adv-x="425" 
d="M337 389v-687h-166v15h76v280h-73q-75 0 -118.5 53t-43.5 150q0 42 13 79.5t35 65.5t51.5 44t63.5 16h238v-16h-76zM247 389h-72q-30 0 -51.5 -26t-21.5 -64v-188q0 -33 8 -52.5t19.5 -30t24.5 -14t24 -3.5h69v378z" />
    <glyph glyph-name="r" unicode="r" horiz-adv-x="346" 
d="M289 244q-19 0 -32 16.5t-13 39.5t13 40t32 17q12 0 23 -8q-19 41 -62 41q-32 0 -52 -25t-20 -65v-285h75v-15h-241v15h76v375h-76v16h83t83 -1v-49q11 25 29.5 37.5t42.5 12.5q37 0 60.5 -30t23.5 -76q0 -23 -13 -39.5t-32 -16.5z" />
    <glyph glyph-name="s" unicode="s" horiz-adv-x="268" 
d="M132 1q-27 0 -49 11.5t-38 31.5t-24.5 48.5t-8.5 61.5q0 23 13 39.5t32 16.5q18 0 31.5 -16.5t13.5 -39.5t-13.5 -39.5t-31.5 -16.5q-14 0 -27 11q11 -45 37.5 -69.5t66.5 -24.5q14 0 23.5 12t9.5 29v196q0 17 -9.5 29t-23.5 12q-20 0 -32.5 16t-12.5 40q0 25 12.5 41
t32.5 16q19 0 32 -16.5t13 -40.5q0 -13 -7 -22.5t-18 -9.5t-18.5 9.5t-7.5 22.5q0 14 7.5 23t18.5 9h2q-8 9 -22 9t-23 -11t-9 -30q0 -38 33 -41q54 -6 87.5 -42t33.5 -112q0 -34 -9.5 -62t-26 -48.5t-39.5 -31.5t-49 -11z" />
    <glyph glyph-name="t" unicode="t" horiz-adv-x="344" 
d="M178 394v-379h76v-15h-242v15h76v379h-76v16h76v280h-76v16h166v-296h154v-16h-154z" />
    <glyph glyph-name="u" unicode="u" horiz-adv-x="424" 
d="M336 390v-252q0 -33 -10 -58.5t-27.5 -43.5t-40 -27t-46.5 -9q-23 0 -45.5 10t-40 28t-28 43.5t-10.5 56.5v252h-76v16h167v-355q0 -20 9 -28t24 -8q48 0 80 33.5t32 97.5v243v1h-77v16h165v-16h-76z" />
    <glyph glyph-name="v" unicode="v" horiz-adv-x="504" 
d="M413 390q-39 -98 -79 -196t-82 -202l-161 398h-79v16h244v-16h-73l108 -268l108 268h-72v16h165v-16h-79z" />
    <glyph glyph-name="w" unicode="w" horiz-adv-x="744" 
d="M653 390l-162 -398l-119 291l-119 -291l-162 398h-79v16h483v-16h-73l108 -268l109 268h-73v16h166v-16h-79zM329 390h-145l109 -268l72 178z" />
    <glyph glyph-name="x" unicode="x" horiz-adv-x="424" 
d="M247 0l-67 167q-32 -30 -54.5 -65t-24.5 -87h76v-15h-165v15h76q2 57 27 95.5t60 69.5l-84 210h-79v16h165l67 -167q32 29 54.5 64.5t24.5 86.5h-76v16h165v-16h-76q-2 -57 -27 -95.5t-60 -69.5l84 -210h79v-15h-165z" />
    <glyph glyph-name="y" unicode="y" horiz-adv-x="505" 
d="M414 390l-233 -585q-6 -16 -16.5 -34t-24 -33t-29 -25t-31.5 -10q-19 0 -32 9t-21 24t-11.5 34t-3.5 39q0 23 13 40t32 17t32.5 -17t13.5 -40t-13.5 -40t-32.5 -17q-17 0 -27 12q5 -21 17.5 -33.5t32.5 -12.5q13 0 26.5 9t25.5 23t22 30.5t16 31.5l77 192l-154 386h-79
v16h244v-16h-73l108 -270l108 270h-73v16h165v-16h-79z" />
    <glyph glyph-name="z" unicode="z" horiz-adv-x="311" 
d="M194 15q12 0 26 3.5t27 14.5h-1q-14 0 -23 11.5t-9 28.5t9 28.5t23 11.5t23 -11.5t9 -29.5q0 -20 -8.5 -34t-21 -22.5t-27 -12t-26.5 -3.5h-165l155 390h-68q-13 0 -27.5 -4t-25.5 -13h1q14 0 23 -11.5t9 -28.5t-9 -28.5t-23 -11.5q-13 0 -22.5 11.5t-9.5 28.5
q0 22 8.5 36t21 22t27.5 11.5t27 3.5h165l-155 -391h67z" />
    <glyph glyph-name="braceleft" unicode="{" horiz-adv-x="248" 
d="M80 178v101q0 28 -15.5 47t-40.5 19v15q24 1 40 20t16 47v101q0 40 10.5 72.5t29.5 56t45.5 36.5t58.5 13v-16q-24 0 -40 -19t-16 -47t0.5 -55.5t-0.5 -55.5q-1 -61 -28.5 -103t-71.5 -57q45 -17 71.5 -63.5t28.5 -106.5q1 -26 0.5 -51t-0.5 -50q0 -28 16 -47.5t40 -19.5
v-15q-32 0 -58.5 13t-45.5 36.5t-29.5 56t-10.5 72.5z" />
    <glyph glyph-name="bar" unicode="|" horiz-adv-x="164" 
d="M80 0v700h4v-700h-4z" />
    <glyph glyph-name="braceright" unicode="}" horiz-adv-x="248" 
d="M168 279v-99q0 -40 -10 -73t-29 -57t-45.5 -37t-59.5 -13v15q24 0 40 19.5t16 47.5v101q0 65 26 109t73 61q-47 17 -73 60.5t-26 109.5v101q0 28 -16 47t-40 19v16q33 0 59.5 -13t45.5 -37t29 -57t10 -73v-99q0 -28 16 -47t40 -20v-15q-12 1 -22 -4t-17.5 -15t-12 -22.5
t-4.5 -24.5z" />
    <glyph glyph-name="asciitilde" unicode="~" horiz-adv-x="372" 
d="M264 200q-32 0 -50 15t-32 32q-18 21 -33 32.5t-41 11.5q-20 0 -41 -11.5t-34 -34.5l-11 8q35 53 86 53q32 0 50 -15.5t32 -32.5q17 -21 32.5 -32.5t41.5 -11.5q43 0 75 46l10 -7q-16 -26 -38.5 -39.5t-46.5 -13.5z" />
    <glyph glyph-name="Euro" unicode="&#x20ac;" horiz-adv-x="530" 
d="M343 0q-49 0 -90 25t-72 66.5t-51 94.5t-26 110h-80v15h78q-1 11 -1 21v21v21t1 20h-78v16h80q6 56 26 109.5t51 95t72 66.5t90 25q75 0 119 -55t44 -151q0 -23 -13 -39.5t-32 -16.5t-32.5 16.5t-13.5 40.5q0 23 13.5 40t32.5 17q15 0 28 -13q-11 66 -47 105.5t-92 39.5
q-33 0 -61.5 -14t-50.5 -39t-34.5 -59.5t-12.5 -76.5v-91h156v-16h-156v-83h156v-15h-156v-91q0 -39 12 -73.5t33 -60.5t48.5 -41t58.5 -15q59 0 96.5 38.5t49.5 107.5q-13 -13 -28 -13q-19 0 -32.5 17t-13.5 40t13.5 40t32.5 17t32 -16.5t13 -40.5q0 -96 -43.5 -150.5
t-119.5 -54.5z" />
    <glyph glyph-name="quotesinglbase" unicode="&#x201a;" horiz-adv-x="132" 
d="M26 -49v15q44 0 61 38q-9 -6 -21 -6q-17 0 -29.5 15t-12.5 38t12.5 39t29.5 16t29.5 -16t12.5 -39q0 -44 -22 -72t-60 -28z" />
    <glyph glyph-name="florin" unicode="&#x192;" horiz-adv-x="585" 
 />
    <glyph glyph-name="quotedblbase" unicode="&#x201e;" horiz-adv-x="292" 
d="M181 -49v15q47 0 65 38q-11 -6 -22 -6q-19 0 -32 15t-13 38t13 39t32 16q18 0 31 -16t13 -39q0 -44 -23.5 -72t-63.5 -28zM26 -49v15q47 0 65 38q-11 -6 -22 -6q-19 0 -32 15t-13 38t13 39t32 16q18 0 31.5 -16t13.5 -39q0 -44 -24 -72t-64 -28z" />
    <glyph glyph-name="ellipsis" unicode="&#x2026;" horiz-adv-x="452" 
d="M383 0q-19 0 -32 15.5t-13 37.5t13 37.5t32 15.5t32 -15.5t13 -37.5t-13 -37.5t-32 -15.5zM226 0q-19 0 -32 15.5t-13 37.5t13 37.5t32 15.5t32.5 -15.5t13.5 -37.5t-13.5 -37.5t-32.5 -15.5zM69 0q-19 0 -32 15.5t-13 37.5t13 37.5t32 15.5t32.5 -15.5t13.5 -37.5
t-13.5 -37.5t-32.5 -15.5z" />
    <glyph glyph-name="circumflex" unicode="&#x2c6;" horiz-adv-x="211" 
d="M180 599l-74 90l-75 -90l-9 10l84 100l83 -100z" />
    <glyph glyph-name="perthousand" unicode="&#x2030;" horiz-adv-x="452" 
 />
    <glyph glyph-name="Scaron" unicode="&#x160;" horiz-adv-x="452" 
d="M225 787l-86 107l9 11l77 -97l77 97l8 -11zM226 0q-47 0 -84 18.5t-63.5 52.5t-40.5 81t-14 103q0 23 13 40t32 17t32.5 -16.5t13.5 -40.5q0 -23 -13.5 -40t-32.5 -17q-17 0 -29 14q13 -92 60.5 -144.5t125.5 -52.5q23 0 43.5 11t35.5 30.5t24 45t9 54.5v198
q0 64 -30.5 102t-81.5 39q-37 0 -60.5 29t-23.5 77t23 77.5t61 29.5t61.5 -29.5t23.5 -77.5q0 -23 -13.5 -40t-32.5 -17q-18 0 -31.5 17t-13.5 40q0 24 13.5 40.5t31.5 16.5q13 0 24 -8q-10 20 -26.5 31t-36.5 11q-32 0 -52 -24.5t-20 -66.5q0 -41 20 -66t52 -25
q42 0 79 -20t64 -54.5t43 -81t16 -99.5t-16 -99.5t-43 -81t-64 -54.5t-79 -20z" />
    <glyph glyph-name="guilsinglleft" unicode="&#x2039;" horiz-adv-x="133" 
d="M102 99l-80 104l80 104l8 -11l-71 -93l71 -94z" />
    <glyph glyph-name="OE" unicode="&#x152;" horiz-adv-x="772" 
d="M663 0h-320v15h77v62q-32 -36 -70.5 -56.5t-81.5 -20.5q-57 0 -102 31t-76.5 81.5t-48.5 113.5t-17 127t17 127t48.5 113t76.5 81.5t102 31.5q43 0 81.5 -21t70.5 -57v62h-77v16h321q38 0 61.5 -30.5t22.5 -81.5h-12q1 45 -20 70.5t-53 25.5h-152v-330h156v-15h-156v-330
h152q43 0 63 42q-11 -8 -23 -8q-19 0 -32.5 17t-13.5 40q0 24 13.5 40.5t32.5 16.5t32 -16.5t13 -40.5q0 -46 -23.5 -76t-61.5 -30zM420 501q0 39 -12 73.5t-33 60t-48.5 40.5t-58.5 15q-32 0 -59.5 -15t-48.5 -40.5t-33 -60t-12 -73.5v-296q0 -39 12 -74t33 -60.5
t48.5 -40.5t59.5 -15q31 0 58.5 15t48.5 40.5t33 60.5t12 74v296z" />
    <glyph glyph-name="Zcaron" unicode="&#x17d;" horiz-adv-x="456" 
d="M227 787l-85 107l9 11l77 -96l76 96l9 -11zM121 15h225q43 0 61 42q-10 -8 -22 -8q-19 0 -32.5 17t-13.5 41q0 23 13.5 40t32.5 17q18 0 31.5 -17t13.5 -40q0 -50 -23 -78.5t-61 -28.5h-325l314 692h-225q-42 0 -62 -41q12 7 23 7q19 0 32 -16.5t13 -40.5q0 -23 -13 -40
t-32 -17t-32 17t-13 40q0 47 23.5 77t60.5 30h325z" />
    <glyph glyph-name="quoteleft" unicode="&#x2018;" horiz-adv-x="132" 
d="M66 550q-17 0 -29.5 15.5t-12.5 38.5q0 45 22.5 73.5t59.5 28.5v-15q-43 0 -61 -40q11 8 21 8q17 0 29.5 -16t12.5 -39t-12.5 -38.5t-29.5 -15.5z" />
    <glyph glyph-name="quoteright" unicode="&#x2019;" horiz-adv-x="132" 
d="M26 550v15q44 0 61 39q-11 -7 -21 -7q-17 0 -29.5 15.5t-12.5 38.5t12.5 39t29.5 16t29.5 -16.5t12.5 -38.5q0 -45 -22 -73t-60 -28z" />
    <glyph glyph-name="quotedblleft" unicode="&#x201c;" horiz-adv-x="292" 
d="M224 550q-19 0 -32 15.5t-13 38.5q0 45 24 73.5t63 28.5v-15q-46 0 -65 -40q11 8 23 8q18 0 31 -16t13 -39t-13 -38.5t-31 -15.5zM69 550q-19 0 -32 16t-13 39q0 45 23 73t64 28v-15q-46 0 -64 -40q10 8 22 8q18 0 31.5 -16t13.5 -39t-13.5 -38.5t-31.5 -15.5z" />
    <glyph glyph-name="quotedblright" unicode="&#x201d;" horiz-adv-x="292" 
d="M181 550v15q47 0 65 39q-12 -7 -22 -7q-19 0 -32 15.5t-13 38.5t13 39t32 16q17 0 30.5 -16.5t13.5 -39.5q0 -51 -23.5 -75.5t-63.5 -24.5zM26 550v15q47 0 65 39q-12 -7 -22 -7q-19 0 -32 15.5t-13 38.5t13 39t32 16q18 0 31.5 -16t13.5 -39q0 -45 -24 -73t-64 -28z" />
    <glyph glyph-name="bullet" unicode="&#x2022;" horiz-adv-x="212" 
d="M106 100q-34 0 -58 30t-24 73q0 21 6.5 39.5t17.5 33t26 22.5t32 8t32 -8t26 -22.5t17.5 -33t6.5 -39.5q0 -43 -23.5 -73t-58.5 -30z" />
    <glyph glyph-name="endash" unicode="&#x2013;" horiz-adv-x="368" 
d="M24 200v6h320v-6h-320z" />
    <glyph glyph-name="emdash" unicode="&#x2014;" horiz-adv-x="528" 
d="M24 200v6h480v-6h-480z" />
    <glyph glyph-name="tilde" unicode="&#x2dc;" horiz-adv-x="212" 
d="M144 798q-16 0 -25.5 15t-17.5 33q-5 13 -12.5 28t-20.5 15q-14 0 -21.5 -15.5t-12.5 -29.5l-12 5q4 9 8 18.5t9.5 17.5t12 13t16.5 5q17 0 26.5 -15.5t16.5 -32.5q5 -12 12.5 -27.5t20.5 -15.5q12 0 20.5 15.5t13.5 29.5l11 -4q-5 -19 -16.5 -37t-28.5 -18z" />
    <glyph glyph-name="trademark" unicode="&#x2122;" horiz-adv-x="416" 
d="M48 690q11 -6 11 -19q0 -9 -5 -15t-13 -6q-7 0 -12 6t-5 15q0 16 7.5 25.5t20.5 9.5h183l48 -137l57 137h52v-15h-20v-176h20v-15h-75v15h20v152q-16 -38 -32 -77.5t-34 -85.5l-56 158v-147h20v-15h-52v15h20v176h-77v-176h20v-15h-75v15h20v176q-11 0 -21.5 -0.5
t-21.5 -0.5z" />
    <glyph glyph-name="scaron" unicode="&#x161;" horiz-adv-x="268" 
d="M133 489l-84 107l8 11l76 -97l76 97l9 -11zM134 0q-54 0 -88 43t-34 112q0 24 13 40.5t32 16.5q18 0 31.5 -17t13.5 -40t-13.5 -40t-31.5 -17q-13 0 -27 12q11 -46 37.5 -70.5t66.5 -24.5q14 0 23.5 12.5t9.5 29.5v197q0 17 -9.5 29t-23.5 12q-20 0 -32.5 16t-12.5 41
t12.5 41t32.5 16t32.5 -15.5t12.5 -41.5q0 -14 -7 -23t-18 -9t-18.5 9t-7.5 23t7.5 23t18.5 9h2q-7 10 -22 10q-14 0 -23 -11.5t-9 -30.5q0 -18 9 -29t23 -13q56 -4 89 -42.5t33 -112.5q0 -32 -9.5 -60t-26 -49t-39 -33.5t-47.5 -12.5z" />
    <glyph glyph-name="guilsinglright" unicode="&#x203a;" horiz-adv-x="133" 
d="M31 99l-9 10l72 94l-72 93l9 11l79 -104z" />
    <glyph glyph-name="oe" unicode="&#x153;" horiz-adv-x="588" 
d="M340 195v-90q0 -37 21 -63.5t52 -26.5q12 0 27 4.5t26 13.5h-1q-14 0 -23 11.5t-9 28.5t9 28.5t23 11.5q13 0 24 -11.5t11 -28.5q0 -23 -9 -37t-22 -22t-28 -11t-28 -3q-34 0 -65 16.5t-54 46.5q-23 -29 -54 -46t-64 -17q-34 0 -63.5 16t-52 44t-35.5 64.5t-13 78.5
t13 79t35 64.5t52 43.5t64 16t64.5 -16.5t53.5 -46.5q23 29 54 46t65 17t64 -16.5t52 -45t34.5 -67t12.5 -82.5h-236zM485 300q0 38 -21 64t-51 26q-31 0 -52 -26t-21 -64v-90h145v90zM176 390q-30 0 -51.5 -26t-21.5 -64v-195q0 -39 20.5 -64.5t52.5 -25.5q14 0 27.5 7
t23.5 19t16 28t6 34v197q0 38 -21.5 64t-51.5 26z" />
    <glyph glyph-name="zcaron" unicode="&#x17e;" horiz-adv-x="311" 
d="M155 489l-85 107l9 11l76 -97l75 97l9 -11zM248 33h-2q-14 0 -23 11.5t-9 28.5t9 29t23 12t23 -12t9 -29q0 -21 -8.5 -35.5t-21 -22.5t-27 -11.5t-27.5 -3.5h-164l155 393h-68q-14 0 -28.5 -3.5t-25.5 -13.5h2q14 0 23 -11.5t9 -28.5t-9 -29t-23 -12q-13 0 -22.5 12
t-9.5 29q0 21 6.5 34.5t17.5 22t24 12t27 3.5q45 0 87.5 0.5t86.5 0.5l-155 -394h67q14 0 28.5 4t25.5 14z" />
    <glyph glyph-name="Ydieresis" unicode="&#x178;" horiz-adv-x="528" 
d="M316 822q-14 0 -23 12t-9 29t9 28.5t23 11.5t23 -11.5t9 -28.5t-9 -29t-23 -12zM211 822q-14 0 -23 12t-9 29t9 28.5t23 11.5t23 -11.5t9 -28.5t-9 -29t-23 -12zM425 692l-116 -291v-386h77v-15h-244v15h77v386l-116 291h-79v16h244v-16h-73l108 -271l108 271h-72v16h165
v-16h-79z" />
    <glyph glyph-name="exclamdown" unicode="&#xa1;" horiz-adv-x="132" 
d="M66 292q-17 0 -29.5 16.5t-12.5 40.5q0 23 12.5 40t29.5 17t29.5 -17t12.5 -40q0 -24 -12.5 -40.5t-29.5 -16.5zM61 -296v502h11v-502h-11z" />
    <glyph glyph-name="cent" unicode="&#xa2;" horiz-adv-x="268" 
d="M202 304l-100 -169v-30q0 -39 21 -64.5t52 -25.5q13 0 27 4t25 14h-2q-14 0 -23 11.5t-9 28.5t9 28.5t23 11.5q13 0 22 -11.5t9 -28.5q0 -20 -8 -34t-20.5 -22.5t-26.5 -12.5t-26 -4q-70 0 -117 62l-37 -62l-10 8l38 65q-18 27 -27.5 60.5t-9.5 69.5q0 40 13 77t35 65
t51.5 44.5t61.5 16.5q15 0 31.5 -5.5t30.5 -16.5l13 23l10 -10l-14 -23q12 -17 12 -41q0 -14 -5.5 -23.5t-14 -13.5t-18 -2.5t-16.5 10.5zM226 373q-11 9 -25.5 13t-27.5 4q-31 0 -51 -25t-20 -64v-140l93 157q-3 10 -2 20t5.5 18t11.5 13t16 4z" />
    <glyph glyph-name="sterling" unicode="&#xa3;" horiz-adv-x="453" 
d="M103 507q0 44 12 80.5t33 62.5t51 40.5t66 14.5q38 0 61.5 -29.5t23.5 -76.5q0 -24 -13 -40.5t-32 -16.5t-32.5 17t-13.5 40q0 24 13.5 40.5t32.5 16.5q10 0 22 -7q-18 41 -62 41q-31 0 -51.5 -25.5t-20.5 -65.5v-189h155v-16h-155v-238q0 -65 30.5 -103t81.5 -38
q41 0 67.5 24.5t37.5 70.5q-13 -11 -27 -11q-19 0 -32 16.5t-13 40.5q0 23 13 40t32 17q17 0 31.5 -15.5t14.5 -39.5q0 -70 -33 -114t-91 -44q-85 0 -113 91q-5 -40 -25.5 -65.5t-58.5 -25.5h-82v15h76v182q-48 -5 -62 -61q13 7 24 -3t11 -27q0 -14 -7 -23t-18 -9t-18.5 9
t-7.5 23q0 44 21.5 74t56.5 32v182h-76v16h76q0 24 0.5 48t0.5 49z" />
    <glyph glyph-name="brokenbar" unicode="&#xa6;" horiz-adv-x="164" 
d="M80 0v700h4v-700h-4z" />
    <glyph glyph-name="section" unicode="&#xa7;" horiz-adv-x="372" 
d="M186 -298q-37 0 -60.5 29.5t-23.5 76.5q0 25 12.5 41t32.5 16q19 0 32 -16.5t13 -40.5q0 -23 -13 -40t-32 -17q-12 0 -23 8q19 -42 62 -42q31 0 53.5 20t39 53.5t26.5 76t16.5 87.5t9 88.5t3.5 78.5q-19 -55 -59 -89t-89 -34q-33 0 -62.5 16t-51.5 44t-35 65t-13 79
q0 33 1 83t6 105.5t15 111.5t28 101t45.5 73t66.5 28q37 0 60.5 -30t23.5 -77q0 -23 -13 -40t-32 -17t-32 17t-13 40q0 24 13 41t32 17q11 0 22 -8q-18 42 -61 42q-31 0 -53.5 -20t-39 -53.5t-26.5 -76t-16.5 -87.5t-9.5 -89t-4 -79q20 56 60 90t89 34q35 0 65 -15.5
t51.5 -43.5t33.5 -65.5t12 -82.5q0 -30 -1 -79t-6 -104.5t-15 -111.5t-28 -101.5t-45.5 -74t-66.5 -28.5zM258 301q0 19 -6 35.5t-15.5 29t-22.5 19.5t-28 7q-30 0 -51 -26.5t-21 -64.5v-197q0 -42 20 -67t52 -25t52 26t20 66v197z" />
    <glyph glyph-name="dieresis" unicode="&#xa8;" horiz-adv-x="212" 
d="M157 831q-13 0 -22.5 11t-9.5 25q0 17 9 26.5t23 9.5q13 0 22 -10.5t9 -25.5q0 -14 -9 -25t-22 -11zM55 831q-13 0 -22 11t-9 25q0 15 9 25.5t22 10.5q14 0 23 -10.5t9 -25.5q0 -14 -9.5 -25t-22.5 -11z" />
    <glyph glyph-name="copyright" unicode="&#xa9;" horiz-adv-x="532" 
d="M266 0q-50 0 -94 24t-77 65t-52 96t-19 118t19 118t52 96t77 65t94 24t94 -24t77 -65t52 -96t19 -118t-19 -118t-52 -96t-77 -65t-94 -24zM266 590q-48 0 -89.5 -22.5t-73 -61.5t-49.5 -91t-18 -112t18 -112.5t49.5 -91.5t73 -61.5t89.5 -22.5t89.5 22.5t73 61.5
t49.5 91.5t18 112.5t-18 112t-49.5 91t-73 61.5t-89.5 22.5zM285 98q-33 0 -63 16t-52.5 44t-36 65.5t-13.5 79.5t13 79t35.5 65t52 44t63.5 16q12 0 27 -3.5t27.5 -12t21.5 -22.5t9 -35q0 -17 -9.5 -28.5t-23.5 -11.5t-23 11.5t-9 28.5t9 29t23 12q1 0 1 -0.5t1 -0.5
q-12 10 -26.5 14t-27.5 4q-73 0 -73 -91v-196q0 -39 21.5 -65t53.5 -26q12 0 26.5 4t25.5 13h-2q-14 0 -23 12t-9 29t9 28.5t23 11.5q15 0 24 -12.5t9 -29.5q0 -20 -9 -34t-21.5 -22.5t-27 -12t-26.5 -3.5z" />
    <glyph glyph-name="ordfeminine" unicode="&#xaa;" horiz-adv-x="250" 
d="M139 500v8q-16 -8 -32 -8q-35 0 -59 30t-24 73t24 73t59 30q17 0 32 -9v9h51v-191h36v-15h-87zM139 651q0 17 -9 28.5t-23 11.5t-23.5 -11.5t-9.5 -28.5v-95q0 -18 9.5 -29.5t23.5 -11.5q13 0 22.5 12t9.5 28v96z" />
    <glyph glyph-name="guillemotleft" unicode="&#xab;" horiz-adv-x="213" 
d="M182 99l-83 104l83 104l8 -11l-74 -93l74 -94zM106 99l-84 104l84 104q2 -4 3.5 -5.5t4.5 -5.5l-75 -93l75 -94z" />
    <glyph glyph-name="logicalnot" unicode="&#xac;" horiz-adv-x="370" 
d="M256 100v91h-232v15h322v-106h-90z" />
    <glyph glyph-name="uni00AD" unicode="&#xad;" horiz-adv-x="368" 
d="M24 200v6h320v-6h-320z" />
    <glyph glyph-name="registered" unicode="&#xae;" horiz-adv-x="532" 
d="M266 0q-50 0 -94 24t-77 65t-52 96t-19 118t19 118t52 96t77 65t94 24t94 -24t77 -65t52 -96t19 -118t-19 -118t-52 -96t-77 -65t-94 -24zM266 590q-48 0 -89.5 -22.5t-73 -61.5t-49.5 -91t-18 -112t18 -112.5t49.5 -91.5t73 -61.5t89.5 -22.5t89.5 22.5t73 61.5
t49.5 91.5t18 112.5t-18 112t-49.5 91t-73 61.5t-89.5 22.5zM397 169q-9 0 -15.5 8.5t-6.5 19.5q0 12 6.5 20.5t16.5 8.5t16.5 -8.5t6.5 -20.5q0 -22 -11 -35.5t-29 -13.5q-27 0 -45.5 24t-20.5 57v32q0 13 -3 23.5t-16 10.5h-77v-132h31v-15h-109v15h32v280h-32v15h148
q27 0 46 -24t19 -57q0 -23 -9.5 -42t-25.5 -30q19 -9 30.5 -29.5t11.5 -46.5v-44q0 -22 20 -22q8 0 16 6zM308 419q0 24 -19 24h-70v-133h69q8 0 14 7t6 17v85z" />
    <glyph glyph-name="macron" unicode="&#xaf;" horiz-adv-x="368" 
d="M24 800v6h320v-6h-320z" />
    <glyph glyph-name="degree" unicode="&#xb0;" horiz-adv-x="212" 
d="M106 500q-17 0 -31.5 8.5t-26 22.5t-18 32.5t-6.5 39.5q0 43 24 73t58 30q35 0 58.5 -30t23.5 -73t-23.5 -73t-58.5 -30zM106 515q14 0 23 11.5t9 28.5v96q0 17 -9 28.5t-23 11.5q-13 0 -22.5 -11.5t-9.5 -28.5v-91q0 -17 7 -31t25 -14z" />
    <glyph glyph-name="plusminus" unicode="&#xb1;" horiz-adv-x="368" 
d="M190 394v-193h-12v193h-154v15h154v194h12v-194h154v-15h-154zM24 100v15h320v-15h-320z" />
    <glyph glyph-name="twosuperior" unicode="&#xb2;" horiz-adv-x="144" 
d="M97 516q-10 5 -10 19q0 8 5 14.5t12 6.5t11.5 -6.5t4.5 -14.5q0 -15 -8 -25t-19 -10h-69q0 34 13 49.5t32 32.5q7 7 12.5 15t5.5 19v55q0 8 -4.5 14t-10.5 6q-24 0 -33 -26q8 1 13 -5.5t5 -15.5t-5 -15t-12 -6t-11.5 6t-4.5 15q0 27 13.5 44.5t34.5 17.5q20 0 34 -18.5
t14 -44.5q0 -29 -14 -45t-29 -28q-13 -10 -26 -22.5t-15 -32.5h57q3 0 4 1z" />
    <glyph glyph-name="threesuperior" unicode="&#xb3;" horiz-adv-x="144" 
d="M72 500q-22 0 -35 17t-13 45q0 8 4.5 14.5t11.5 6.5t12 -6.5t5 -14.5q0 -9 -5 -15.5t-13 -5.5q9 -26 33 -26q6 0 10.5 6t4.5 14v54q0 20 -15 20q-5 0 -10 -2.5t-5 -12.5h-12q0 10 2.5 15.5t6 8t8.5 4t11 3.5q9 1 9 12v41q0 13 -10 13q-8 0 -12 -7q7 -4 7 -13
q0 -14 -11 -14t-11 14q0 16 7.5 25.5t19.5 9.5q15 0 26 -14.5t11 -34.5q0 -26 -16 -40q13 -8 20 -23t7 -34q0 -29 -13 -44.5t-35 -15.5z" />
    <glyph glyph-name="acute" unicode="&#xb4;" horiz-adv-x="132" 
d="M26 550v15q44 0 61 39q-11 -7 -21 -7q-17 0 -29.5 15.5t-12.5 38.5t12.5 39t29.5 16t29.5 -16t12.5 -39q0 -45 -22 -73t-60 -28z" />
    <glyph glyph-name="mu" unicode="&#xb5;" horiz-adv-x="424" 
d="M336 390v-254q0 -33 -10 -58.5t-27.5 -43t-40 -26.5t-46.5 -9q-18 0 -33 4v-102h-167v15h76v474h-76v16h167v-357q0 -16 10 -26t23 -10q22 0 42.5 8t36 24t24.5 39t9 52v254h-77v16h165v-16h-76z" />
    <glyph glyph-name="paragraph" unicode="&#xb6;" horiz-adv-x="137" 
 />
    <glyph glyph-name="guillemotright" unicode="&#xbb;" horiz-adv-x="189" 
d="M95 99l-8 10l74 94l-74 93l8 11l83 -104zM19 99l-9 10l75 94l-75 93l9 11l83 -104z" />
    <glyph glyph-name="questiondown" unicode="&#xbf;" horiz-adv-x="372" 
d="M186 291q-19 0 -32 17t-13 40t13 40t32 17q18 0 31.5 -17t13.5 -40t-13.5 -40t-31.5 -17zM189 -300q-35 0 -65.5 15.5t-52.5 43t-34.5 65.5t-12.5 83q0 42 12 78t33 63t49.5 43t61.5 18v96h12v-111q-35 0 -56.5 -25.5t-21.5 -65.5v-203q0 -17 6 -32.5t16.5 -26.5
t23 -17.5t26.5 -6.5q59 0 96 38t49 107q-13 -13 -28 -13q-19 0 -32 17t-13 40t13 40t32 17q18 0 31.5 -17t13.5 -40q0 -45 -11.5 -82.5t-32 -65t-50 -43t-65.5 -15.5z" />
    <glyph glyph-name="Agrave" unicode="&#xc0;" 
d="M258 863q0 17 9.5 28.5t23.5 11.5t23 -11.5t9 -28.5t-9 -29t-23 -12q-5 0 -9 2l-8 4q6 -31 25 -52t48 -21v-15q-42 0 -65.5 35t-23.5 88zM419 0v15h74l-97 282h-183l-97 -282h74v-15h-166v15h79q60 175 120 348.5t121 356.5l241 -705h79v-15h-245zM304 565l-86 -253h173z
" />
    <glyph glyph-name="Aacute" unicode="&#xc1;" 
d="M339 740v15q29 0 48.5 21t25.5 52l-8 -4t-9 -2q-14 0 -23.5 12t-9.5 29t9.5 28.5t23.5 11.5t23 -11.5t9 -29.5q0 -52 -23 -87t-66 -35zM419 0v15h74l-97 282h-183l-97 -282h74v-15h-166v15h79q60 175 120 348.5t121 356.5l241 -705h79v-15h-245zM304 565l-86 -253h173z
" />
    <glyph glyph-name="Acircumflex" unicode="&#xc2;" 
d="M420 787l-77 97l-77 -97l-9 11l86 108l86 -108zM419 0v15h74l-97 282h-183l-97 -282h74v-15h-166v15h79q60 175 120 348.5t121 356.5l241 -705h79v-15h-245zM304 565l-86 -253h173z" />
    <glyph glyph-name="Atilde" unicode="&#xc3;" 
d="M383 789q-19 0 -28.5 17.5t-16.5 35.5q-5 14 -12.5 30t-21.5 16q-6 0 -12.5 -6.5t-11 -14.5t-6.5 -16.5t-1 -12.5l-16 6q5 20 17 39.5t30 19.5q19 0 28.5 -17t15.5 -35q5 -14 13 -30t22 -16q11 0 20.5 15.5t14.5 32.5l11 -4q-3 -10 -7 -20.5t-10 -19.5t-13 -14.5
t-16 -5.5zM419 0v15h74l-97 282h-183l-97 -282h74v-15h-166v15h79q60 175 120 348.5t121 356.5l241 -705h79v-15h-245zM304 565l-86 -253h173z" />
    <glyph glyph-name="Adieresis" unicode="&#xc4;" 
d="M396 822q-14 0 -23.5 12t-9.5 29t9.5 28.5t23.5 11.5t23 -11.5t9 -28.5t-9 -29t-23 -12zM291 822q-14 0 -23.5 12t-9.5 29t9.5 28.5t23.5 11.5t23 -11.5t9 -28.5t-9.5 -29t-22.5 -12zM419 0v15h74l-97 282h-183l-97 -282h74v-15h-166v15h79q60 175 120 348.5t121 356.5
l241 -705h79v-15h-245zM304 565l-86 -253h173z" />
    <glyph glyph-name="Aring" unicode="&#xc5;" 
d="M343 822q-13 0 -22.5 12t-9.5 29t9 28.5t23 11.5t23.5 -11.5t9.5 -28.5t-9.5 -29t-23.5 -12zM419 0v15h74l-97 282h-183l-97 -282h74v-15h-166v15h79q60 175 120 348.5t121 356.5l241 -705h79v-15h-245zM350 878q0 10 -7 10t-7 -9v-33q0 -3 2 -6t5 -3q4 0 6 4q1 2 1 5v32
zM304 565l-86 -253h173z" />
    <glyph glyph-name="AE" unicode="&#xc6;" horiz-adv-x="850" 
d="M741 0h-321v15h74l-97 281h-184l-96 -281h73v-15h-166v15h79l242 702l152 -442v415h-77v16h321q38 0 61.5 -30.5t23.5 -81.5h-12q-1 44 -21 70t-52 26h-152v-330h156v-15h-156v-330h152q44 0 62 42q-11 -8 -23 -8q-19 0 -32 17t-13 40q0 24 13 40.5t32 16.5
q20 0 33.5 -17t12.5 -40q-1 -47 -24 -76.5t-61 -29.5zM305 563l-87 -252h174z" />
    <glyph glyph-name="Ccedilla" unicode="&#xc7;" horiz-adv-x="452" 
d="M306 1q44 -26 44 -93q0 -48 -23.5 -77.5t-61.5 -29.5q-18 0 -31.5 17t-13.5 40q0 24 13.5 40.5t31.5 16.5q13 0 23.5 -8t16.5 -20.5t6 -27.5t-6 -29q33 22 33 78q0 41 -20 66.5t-52 24.5q-57 -1 -101.5 30t-76 81.5t-48 114t-16.5 127.5t17 127.5t48 113.5t75.5 81.5
t100.5 31.5q36 0 65.5 -15.5t51.5 -43t34 -65t12 -82.5q0 -24 -13 -40.5t-32 -16.5t-32 17t-13 40t13 40t32 17q16 0 29 -13q-12 69 -49.5 107.5t-97.5 38.5q-31 0 -58.5 -15t-47.5 -40.5t-32 -60.5t-12 -74v-297q0 -39 12 -73.5t32.5 -60.5t48 -41t58.5 -15q71 0 111.5 50
t38.5 140h12q0 -37 -7.5 -71.5t-23 -62t-38.5 -46t-53 -22.5z" />
    <glyph glyph-name="Egrave" unicode="&#xc8;" horiz-adv-x="450" 
d="M178 863q0 17 9.5 28.5t23.5 11.5q13 0 22.5 -11.5t9.5 -28.5q0 -24 -16.5 -35.5t-32.5 1.5q6 -32 24.5 -53t48.5 -21v-15q-43 0 -66 35.5t-23 87.5zM342 0h-318v15h76v677h-76v16h318q37 0 60.5 -30.5t23.5 -81.5h-12q-3 42 -21 69t-50 27h-152v-330h155v-16h-155v-331
h151q43 0 61 42q-11 -8 -23 -7.5t-21.5 7.5t-16 20t-6.5 30q0 23 13 40t32 17t32 -17t13 -40q0 -47 -23.5 -77t-60.5 -30z" />
    <glyph glyph-name="Eacute" unicode="&#xc9;" horiz-adv-x="450" 
d="M259 740v16q29 -1 48 20t25 53q-16 -13 -32.5 -1.5t-16.5 35.5q0 17 9 29t23 12t23 -12t9 -29q0 -53 -22.5 -88t-65.5 -35zM342 0h-318v15h76v677h-76v16h318q37 0 60.5 -30.5t23.5 -81.5h-12q-3 42 -21 69t-50 27h-152v-330h155v-16h-155v-331h151q43 0 61 42
q-11 -8 -23 -7.5t-21.5 7.5t-16 20t-6.5 30q0 23 13 40t32 17t32 -17t13 -40q0 -47 -23.5 -77t-60.5 -30z" />
    <glyph glyph-name="Ecircumflex" unicode="&#xca;" horiz-adv-x="450" 
d="M339 787l-77 97l-76 -97l-9 11l85 108l86 -108zM342 0h-318v15h76v677h-76v16h318q37 0 60.5 -30.5t23.5 -81.5h-12q-3 42 -21 69t-50 27h-152v-330h155v-16h-155v-331h151q43 0 61 42q-11 -8 -23 -7.5t-21.5 7.5t-16 20t-6.5 30q0 23 13 40t32 17t32 -17t13 -40
q0 -47 -23.5 -77t-60.5 -30z" />
    <glyph glyph-name="Edieresis" unicode="&#xcb;" horiz-adv-x="450" 
d="M315 822q-14 0 -23 12t-9 29q0 18 9 29t23 11t23 -11.5t9 -28.5t-9 -29t-23 -12zM211 822q-14 0 -23.5 12t-9.5 29t9.5 28.5t23.5 11.5q13 0 22.5 -11.5t9.5 -28.5t-9.5 -29t-22.5 -12zM342 0h-318v15h76v677h-76v16h318q37 0 60.5 -30.5t23.5 -81.5h-12q-3 42 -21 69
t-50 27h-152v-330h155v-16h-155v-331h151q43 0 61 42q-11 -8 -23 -7.5t-21.5 7.5t-16 20t-6.5 30q0 23 13 40t32 17t32 -17t13 -40q0 -47 -23.5 -77t-60.5 -30z" />
    <glyph glyph-name="Igrave" unicode="&#xcc;" horiz-adv-x="288" 
d="M186 740q-22 0 -37.5 9.5t-26 26t-16 38.5t-7.5 48q0 17 9 29t23 12q13 0 22.5 -11.5t9.5 -28.5q0 -24 -16.5 -35.5t-32.5 1.5q6 -32 24.5 -53t47.5 -21v-15zM24 0v15h75v677h-75v16h240v-16h-75v-677h75v-15h-240z" />
    <glyph glyph-name="Iacute" unicode="&#xcd;" horiz-adv-x="288" 
d="M101 740v15q28 1 45.5 22.5t25.5 50.5q-8 -6 -16.5 -5.5t-15 5.5t-11 14t-4.5 21q0 17 9 29t23 12t22.5 -12.5t8.5 -29.5q0 -21 -6 -43t-17.5 -39.5t-27.5 -28.5t-36 -11zM24 0v15h75v677h-75v16h240v-16h-75v-677h75v-15h-240z" />
    <glyph glyph-name="Icircumflex" unicode="&#xce;" horiz-adv-x="288" 
d="M181 837l-37 47l-37 -47l-9 11l46 58l45 -58zM24 0v15h75v677h-75v16h240v-16h-75v-677h75v-15h-240z" />
    <glyph glyph-name="Idieresis" unicode="&#xcf;" horiz-adv-x="288" 
d="M195 822q-13 0 -22.5 12t-9.5 29t9.5 28.5t22.5 11.5q14 0 23 -11.5t9 -28.5t-9 -29t-23 -12zM92 822q-13 0 -22.5 12t-9.5 29t9.5 28.5t22.5 11.5q14 0 23 -11.5t9 -28.5t-9 -29t-23 -12zM24 0v15h75v677h-75v16h240v-16h-75v-677h75v-15h-240z" />
    <glyph glyph-name="Eth" unicode="&#xd0;" horiz-adv-x="530" 
d="M264 0h-240v15h77v328h-77v16h77v331h-77v16h241q56 0 100.5 -31.5t76 -81.5t48 -113t16.5 -127t-16.5 -127t-48 -113.5t-76.5 -81.5t-101 -31zM415 501q0 39 -12 73.5t-32 60t-48 40.5t-59 15h-73v-331h77v-16h-77v-328h73q31 0 59 15t48 40.5t32 60.5t12 74v296z" />
    <glyph glyph-name="Ntilde" unicode="&#xd1;" horiz-adv-x="608" 
d="M342 789q-19 0 -28.5 17.5t-16.5 35.5q-5 14 -12.5 30t-21.5 16q-11 0 -20.5 -15.5t-14.5 -33.5l-11 5q5 20 17 39.5t29 19.5q19 0 28.5 -17t16.5 -35q5 -14 12.5 -30t21.5 -16q11 0 20.5 15.5t14.5 32.5l11 -4q-3 -10 -7 -20.5t-9.5 -19.5t-13 -14.5t-16.5 -5.5zM340 0
v15h72l-299 656v-656h77v-15h-166v15h77v677h-77v16h165l306 -671v655h-77v16h166v-16h-77v-677h77v-15h-244z" />
    <glyph glyph-name="Ograve" unicode="&#xd2;" horiz-adv-x="532" 
d="M181 862q0 17 9 29t23 12t23.5 -11.5t9.5 -28.5q0 -24 -17 -35.5t-33 1.5q6 -32 25 -53t49 -21v-16q-22 -1 -38.5 8.5t-28 26.5t-17 39.5t-5.5 48.5zM266 0q-56 0 -100.5 31.5t-76 81.5t-48.5 113.5t-17 127.5t17 127.5t48.5 113.5t76 81.5t100.5 31.5t101 -31.5
t76.5 -81.5t48 -113.5t16.5 -127.5t-16.5 -127.5t-48 -113.5t-76.5 -81.5t-101 -31.5zM418 502q0 39 -12 74t-32.5 60.5t-48.5 40.5t-59 15t-58.5 -15t-48 -40.5t-32.5 -60.5t-12 -74v-296q0 -40 12 -74.5t32 -60.5t47.5 -41t59.5 -15q31 0 59 15t48.5 41t32.5 60.5t12 74.5
v296z" />
    <glyph glyph-name="Oacute" unicode="&#xd3;" horiz-adv-x="532" 
d="M262 740v15q29 0 48 21t25 53q-16 -13 -32.5 -1.5t-16.5 35.5q0 17 9 29t23 12t23 -12t9 -29q0 -53 -23 -88t-65 -35zM266 0q-56 0 -100.5 31.5t-76 81.5t-48.5 113.5t-17 127.5t17 127.5t48.5 113.5t76 81.5t100.5 31.5t101 -31.5t76.5 -81.5t48 -113.5t16.5 -127.5
t-16.5 -127.5t-48 -113.5t-76.5 -81.5t-101 -31.5zM418 502q0 39 -12 74t-32.5 60.5t-48.5 40.5t-59 15t-58.5 -15t-48 -40.5t-32.5 -60.5t-12 -74v-296q0 -40 12 -74.5t32 -60.5t47.5 -41t59.5 -15q31 0 59 15t48.5 41t32.5 60.5t12 74.5v296z" />
    <glyph glyph-name="Ocircumflex" unicode="&#xd4;" horiz-adv-x="532" 
d="M342 787l-77 97l-76 -97l-9 11l85 108l86 -108zM266 0q-56 0 -100.5 31.5t-76 81.5t-48.5 113.5t-17 127.5t17 127.5t48.5 113.5t76 81.5t100.5 31.5t101 -31.5t76.5 -81.5t48 -113.5t16.5 -127.5t-16.5 -127.5t-48 -113.5t-76.5 -81.5t-101 -31.5zM418 502q0 39 -12 74
t-32.5 60.5t-48.5 40.5t-59 15t-58.5 -15t-48 -40.5t-32.5 -60.5t-12 -74v-296q0 -40 12 -74.5t32 -60.5t47.5 -41t59.5 -15q31 0 59 15t48.5 41t32.5 60.5t12 74.5v296z" />
    <glyph glyph-name="Otilde" unicode="&#xd5;" horiz-adv-x="532" 
d="M305 789q-19 0 -28.5 17.5t-15.5 35.5q-5 14 -13 30t-22 16q-11 0 -20 -15.5t-14 -33.5l-12 5q5 20 17 39.5t29 19.5q19 0 28.5 -17t16.5 -35q5 -14 12.5 -30t21.5 -16q11 0 20.5 15.5t14.5 33.5l11 -5q-3 -10 -7 -20.5t-9.5 -19.5t-13 -14.5t-16.5 -5.5zM266 0
q-56 0 -100.5 31.5t-76 81.5t-48.5 113.5t-17 127.5t17 127.5t48.5 113.5t76 81.5t100.5 31.5t101 -31.5t76.5 -81.5t48 -113.5t16.5 -127.5t-16.5 -127.5t-48 -113.5t-76.5 -81.5t-101 -31.5zM418 502q0 39 -12 74t-32.5 60.5t-48.5 40.5t-59 15t-58.5 -15t-48 -40.5
t-32.5 -60.5t-12 -74v-296q0 -40 12 -74.5t32 -60.5t47.5 -41t59.5 -15q31 0 59 15t48.5 41t32.5 60.5t12 74.5v296z" />
    <glyph glyph-name="Odieresis" unicode="&#xd6;" horiz-adv-x="532" 
d="M318 822q-14 0 -23 12t-9 29t9 28.5t23 11.5t23 -11.5t9 -28.5t-9 -29t-23 -12zM213 822q-13 0 -22.5 12t-9.5 29t9.5 28.5t22.5 11.5q14 0 23.5 -11.5t9.5 -28.5t-9.5 -29t-23.5 -12zM266 0q-56 0 -100.5 31.5t-76 81.5t-48.5 113.5t-17 127.5t17 127.5t48.5 113.5
t76 81.5t100.5 31.5t101 -31.5t76.5 -81.5t48 -113.5t16.5 -127.5t-16.5 -127.5t-48 -113.5t-76.5 -81.5t-101 -31.5zM418 502q0 39 -12 74t-32.5 60.5t-48.5 40.5t-59 15t-58.5 -15t-48 -40.5t-32.5 -60.5t-12 -74v-296q0 -40 12 -74.5t32 -60.5t47.5 -41t59.5 -15
q31 0 59 15t48.5 41t32.5 60.5t12 74.5v296z" />
    <glyph glyph-name="Oslash" unicode="&#xd8;" horiz-adv-x="532" 
d="M266 0q-49 0 -92 26t-75 71l-67 -97l-9 9l68 100q-33 51 -50 114.5t-17 129.5q0 64 17 127t48.5 113t76 81.5t100.5 31.5q49 0 92 -26.5t75 -71.5l67 99l10 -10l-69 -100q34 -51 50.5 -114.5t16.5 -129.5q0 -64 -16.5 -127t-48 -113.5t-76.5 -81.5t-101 -31zM266 690
q-31 0 -58.5 -15t-48 -40.5t-32.5 -60t-12 -73.5v-296q0 -28 6 -53l286 418q-17 54 -55.5 87t-85.5 33zM418 501q0 13 -2 26t-5 26l-285 -417q17 -55 55 -88t85 -33q31 0 59 15t48.5 40.5t32.5 60.5t12 74v296z" />
    <glyph glyph-name="Ugrave" unicode="&#xd9;" 
d="M258 863q0 17 9.5 28.5t23.5 11.5t23 -11.5t9 -28.5q0 -24 -16.5 -35.5t-32.5 1.5q6 -32 25 -53t48 -21v-15q-42 1 -65.5 36t-23.5 87zM587 692v-341q0 -64 -16.5 -127t-48 -112.5t-76.5 -80.5t-102 -31q-58 0 -103 31t-76 81t-47.5 113.5t-16.5 128.5v338h-77v16h245
v-16h-77v-487q0 -39 12 -74t32.5 -60.5t48 -40.5t59.5 -15q31 0 59 15t48.5 40.5t32.5 60.5t12 74v487h-77v16h245v-16h-77z" />
    <glyph glyph-name="Uacute" unicode="&#xda;" 
d="M339 740v15q29 0 48.5 21t25.5 52q-16 -12 -33 -0.5t-17 35.5q0 17 9.5 28.5t23.5 11.5t23 -11.5t9 -28.5q0 -53 -23 -88t-66 -35zM587 692v-341q0 -64 -16.5 -127t-48 -112.5t-76.5 -80.5t-102 -31q-58 0 -103 31t-76 81t-47.5 113.5t-16.5 128.5v338h-77v16h245v-16
h-77v-487q0 -39 12 -74t32.5 -60.5t48 -40.5t59.5 -15q31 0 59 15t48.5 40.5t32.5 60.5t12 74v487h-77v16h245v-16h-77z" />
    <glyph glyph-name="Ucircumflex" unicode="&#xdb;" 
d="M420 787l-77 97l-77 -97l-9 11l86 108l86 -108zM587 692v-341q0 -64 -16.5 -127t-48 -112.5t-76.5 -80.5t-102 -31q-58 0 -103 31t-76 81t-47.5 113.5t-16.5 128.5v338h-77v16h245v-16h-77v-487q0 -39 12 -74t32.5 -60.5t48 -40.5t59.5 -15q31 0 59 15t48.5 40.5
t32.5 60.5t12 74v487h-77v16h245v-16h-77z" />
    <glyph glyph-name="Udieresis" unicode="&#xdc;" 
d="M396 822q-14 0 -23.5 12t-9.5 29q0 18 9.5 29.5t23.5 11.5t23 -12t9 -29t-9 -29t-23 -12zM291 822q-14 0 -23.5 12t-9.5 29t9.5 29t23.5 12t23 -12t9 -29t-9 -29t-23 -12zM587 692v-341q0 -64 -16.5 -127t-48 -112.5t-76.5 -80.5t-102 -31q-58 0 -103 31t-76 81
t-47.5 113.5t-16.5 128.5v338h-77v16h245v-16h-77v-487q0 -39 12 -74t32.5 -60.5t48 -40.5t59.5 -15q31 0 59 15t48.5 40.5t32.5 60.5t12 74v487h-77v16h245v-16h-77z" />
    <glyph glyph-name="Yacute" unicode="&#xdd;" horiz-adv-x="528" 
d="M260 740l-1 15q29 0 48.5 21t25.5 52q-16 -12 -32.5 -0.5t-16.5 35.5q0 17 9 28.5t23 11.5t23 -11.5t9 -28.5q0 -53 -23 -88t-65 -35zM425 692l-116 -291v-386h77v-15h-244v15h77v386l-116 291h-79v16h244v-16h-73l108 -271l108 271h-72v16h165v-16h-79z" />
    <glyph glyph-name="agrave" unicode="&#xe0;" horiz-adv-x="426" 
d="M90 564q0 17 9.5 29.5t23.5 12.5q13 0 22.5 -12t9.5 -29q0 -24 -16.5 -35.5t-32.5 1.5q6 -31 25 -52t48 -21v-15q-45 0 -67 35t-22 86zM247 0v22q-35 -22 -72 -22q-34 0 -64 16t-52 44t-34.5 65t-12.5 79t13 79.5t35 65.5t51.5 44t63.5 16q39 0 72 -21v21h91v-394h76v-15
h-167zM247 303q0 38 -21 64t-51 26t-51 -26t-21 -64v-197q0 -44 18.5 -67.5t53.5 -23.5q30 0 51 26t21 64v198z" />
    <glyph glyph-name="aacute" unicode="&#xe1;" horiz-adv-x="426" 
d="M171 443v15q29 0 48 21t25 52q-16 -13 -32.5 -1.5t-16.5 35.5q0 17 9.5 28.5t22.5 11.5q14 0 23.5 -11.5t9.5 -28.5q0 -26 -6 -48.5t-17 -39t-28 -25.5t-38 -9zM247 0v22q-35 -22 -72 -22q-34 0 -64 16t-52 44t-34.5 65t-12.5 79t13 79.5t35 65.5t51.5 44t63.5 16
q39 0 72 -21v21h91v-394h76v-15h-167zM247 303q0 38 -21 64t-51 26t-51 -26t-21 -64v-197q0 -44 18.5 -67.5t53.5 -23.5q30 0 51 26t21 64v198z" />
    <glyph glyph-name="acircumflex" unicode="&#xe2;" horiz-adv-x="426" 
d="M252 491l-77 96q-20 -24 -38.5 -48t-38.5 -48q-2 2 -3 3.5t-3 3.5l-3 3l86 108l86 -108zM247 0v22q-35 -22 -72 -22q-34 0 -64 16t-52 44t-34.5 65t-12.5 79t13 79.5t35 65.5t51.5 44t63.5 16q39 0 72 -21v21h91v-394h76v-15h-167zM247 303q0 38 -21 64t-51 26t-51 -26
t-21 -64v-197q0 -40 18.5 -65.5t50.5 -25.5q31 0 53 25t22 65v198z" />
    <glyph glyph-name="atilde" unicode="&#xe3;" horiz-adv-x="426" 
d="M214 492q-19 0 -28 17t-16 35q-5 14 -12.5 30t-21.5 16q-11 0 -20.5 -15.5t-14.5 -32.5l-11 4q5 21 16.5 40.5t29.5 19.5q19 0 28 -17.5t16 -35.5q5 -13 12.5 -29.5t21.5 -16.5q11 0 20.5 15.5t14.5 33.5l11 -5q-5 -20 -16.5 -39.5t-29.5 -19.5zM247 0v22
q-35 -22 -72 -22q-34 0 -64 16t-52 44t-34.5 65t-12.5 79t13 79.5t35 65.5t51.5 44t63.5 16q39 0 72 -21v21h91v-394h76v-15h-167zM247 303q0 38 -21 64t-51 26t-51 -26t-21 -64v-197q0 -40 18.5 -65.5t50.5 -25.5q31 0 53 25t22 65v198z" />
    <glyph glyph-name="adieresis" unicode="&#xe4;" horiz-adv-x="426" 
d="M227 525q-13 0 -22.5 11.5t-9.5 28.5t9.5 28.5t22.5 11.5q14 0 23.5 -11.5t9.5 -28.5t-9.5 -28.5t-23.5 -11.5zM123 525q-14 0 -23.5 11t-9.5 28q0 18 9 29.5t24 11.5q13 0 22.5 -11.5t9.5 -28.5t-9.5 -28.5t-22.5 -11.5zM247 0v22q-35 -22 -72 -22q-34 0 -64 16t-52 44
t-34.5 65t-12.5 79t13 79.5t35 65.5t51.5 44t63.5 16q39 0 72 -21v21h91v-394h76v-15h-167zM247 303q0 38 -21 64t-51 26t-51 -26t-21 -64v-197q0 -40 19 -65t51 -25t53 24.5t21 64.5v198z" />
    <glyph glyph-name="aring" unicode="&#xe5;" horiz-adv-x="426" 
d="M175 524q-14 0 -23 12t-9 29t9 29t23 12t23 -12t9 -29t-9 -29t-23 -12zM247 0v22q-35 -22 -72 -22q-34 0 -64 16t-52 44t-34.5 65t-12.5 79t13 79.5t35 65.5t51.5 44t63.5 16q39 0 72 -21v21h91v-394h76v-15h-167zM182 581q0 9 -7 9t-7 -9v-33q0 -8 7 -8t7 8v33zM247 303
q0 38 -21 64t-51 26t-51 -26t-21 -64v-197q0 -40 18 -65.5t50 -25.5t54 25t22 65v198z" />
    <glyph glyph-name="ae" unicode="&#xe6;" horiz-adv-x="588" 
d="M340 195v-90q0 -37 21 -63.5t52 -26.5q13 0 28 4t26 14h-2q-14 0 -23 11.5t-9 28.5t9 28.5t23 11.5t23.5 -11.5t9.5 -28.5q0 -21 -9 -35t-21.5 -22.5t-27.5 -12t-27 -3.5q-40 0 -73 21v-21h-91v21q-17 -10 -35.5 -15.5t-37.5 -5.5q-34 0 -63.5 16t-52 44t-35.5 64.5
t-13 78.5t13 79t35 64.5t52 43.5t64 16q19 0 37.5 -5.5t35.5 -15.5v21h91v-22q35 22 73 22q34 0 64 -16.5t52 -45t34.5 -67t12.5 -82.5h-236zM413 390q-35 0 -54 -24t-19 -66v-90h145v90q0 90 -72 90zM249 301q0 37 -21.5 63t-51.5 26t-51.5 -26t-21.5 -64v-195
q0 -38 21.5 -64t51.5 -26t51.5 26t21.5 64v196z" />
    <glyph glyph-name="ccedilla" unicode="&#xe7;" horiz-adv-x="268" 
d="M200 2q18 -14 18 -44q0 -26 -12.5 -41.5t-32.5 -15.5q-11 0 -18.5 9t-7.5 23t7.5 23t18.5 9t19 -10.5t6 -24.5q8 11 8 28q0 41 -33 41q-34 0 -63.5 16t-51 43.5t-34 64.5t-12.5 79q0 45 12 82.5t33.5 64.5t51 42t64.5 15q12 0 26.5 -3.5t27 -12t21 -22.5t8.5 -35
q0 -17 -8.5 -29t-22.5 -12t-23 12t-9 29t9.5 28.5t23.5 11.5q-11 9 -26 13t-27 4q-32 0 -52 -20t-20 -62l1 -204q0 -19 5.5 -35.5t15.5 -29t22.5 -19.5t27.5 -7q13 0 27.5 4t25.5 14q-14 -1 -23.5 11t-9.5 29t9 28.5t23 11.5q13 0 22 -11.5t9 -28.5q0 -32 -18 -47.5
t-38 -21.5z" />
    <glyph glyph-name="egrave" unicode="&#xe8;" horiz-adv-x="348" 
d="M178 443q-42 0 -65 35t-23 87q0 17 9 28.5t23 11.5t23 -11.5t9 -28.5t-9 -28.5t-23 -11.5q-10 0 -17 6q6 -31 25 -52t48 -21v-15zM102 197v-91q0 -19 6 -35.5t15.5 -29t22.5 -19.5t28 -7q13 0 27.5 4.5t25.5 13.5q-14 -1 -23.5 11t-9.5 29t9.5 29t22.5 12q14 0 23 -12
t9 -29q0 -21 -8.5 -35t-21 -22.5t-27.5 -12t-27 -3.5q-35 0 -64.5 15.5t-51.5 42.5t-34 64.5t-12 81.5q0 42 13 79.5t35 65t51.5 44t62.5 16.5q52 0 90 -33.5t58 -93.5q6 -19 10 -40t4 -45h-234zM102 212h144v91q0 39 -20.5 64.5t-51.5 25.5q-32 0 -51.5 -25.5t-20.5 -64.5
v-91z" />
    <glyph glyph-name="eacute" unicode="&#xe9;" horiz-adv-x="348" 
d="M170 443v15q29 0 48 21t25 52q-16 -13 -32.5 -1.5t-16.5 35.5q0 17 9.5 28.5t22.5 11.5q14 0 23 -12t9 -29q0 -53 -22.5 -87.5t-65.5 -33.5zM102 197v-91q0 -19 6 -35.5t15.5 -29t22.5 -19.5t28 -7q13 0 27.5 4.5t25.5 13.5q-14 -1 -23.5 11t-9.5 29t9.5 29t22.5 12
q14 0 23 -12t9 -29q0 -21 -8.5 -35t-21 -22.5t-27.5 -12t-27 -3.5q-35 0 -64.5 15.5t-51.5 42.5t-34 64.5t-12 81.5q0 42 13 79.5t35 65t51.5 44t62.5 16.5q52 0 90 -33.5t58 -93.5q6 -19 10 -40t4 -45h-234zM246 303q0 39 -20 64.5t-52 25.5t-52 -25.5t-20 -64.5v-91h144
v91z" />
    <glyph glyph-name="ecircumflex" unicode="&#xea;" horiz-adv-x="348" 
d="M251 491l-77 96q-33 -42 -48 -60.5t-20 -25t-4.5 -6t-3.5 -4.5q-2 2 -3 3.5t-3 3.5l-3 3l85 108l85 -108zM102 197v-91q0 -19 6 -35.5t15.5 -29t22.5 -19.5t28 -7q13 0 27.5 4.5t25.5 13.5q-14 -1 -23.5 11t-9.5 29t9.5 29t22.5 12q14 0 23 -12t9 -29q0 -21 -8.5 -35
t-21 -22.5t-27.5 -12t-27 -3.5q-35 0 -64.5 15.5t-51.5 42.5t-34 64.5t-12 81.5q0 42 13 79.5t35 65t51.5 44t62.5 16.5q52 0 90 -33.5t58 -93.5q6 -19 10 -40t4 -45h-234zM246 303q0 40 -20 65t-52 25t-52 -25.5t-20 -65.5v-90h144v91z" />
    <glyph glyph-name="edieresis" unicode="&#xeb;" horiz-adv-x="348" 
d="M226 525q-13 0 -22.5 11.5t-9.5 28.5q0 18 9 29.5t23 11.5t23 -12t9 -29t-9 -28.5t-23 -11.5zM122 525q-13 0 -22.5 11.5t-9.5 28.5t9.5 29t22.5 12q14 0 23 -12t9 -29t-9 -28.5t-23 -11.5zM102 197v-91q0 -19 6 -35.5t15.5 -29t22.5 -19.5t28 -7q13 0 27.5 4.5
t25.5 13.5q-14 -1 -23.5 11t-9.5 29t9.5 29t22.5 12q14 0 23 -12t9 -29q0 -21 -8.5 -35t-21 -22.5t-27.5 -12t-27 -3.5q-35 0 -64.5 15.5t-51.5 42.5t-34 64.5t-12 81.5q0 42 13 79.5t35 65t51.5 44t62.5 16.5q52 0 90 -33.5t58 -93.5q6 -19 10 -40t4 -45h-234zM246 303
q0 40 -20 65t-52 25q-31 0 -51.5 -25.5t-20.5 -64.5v-91h144v91z" />
    <glyph glyph-name="igrave" unicode="&#xec;" horiz-adv-x="264" 
d="M175 443q-43 0 -65.5 35t-22.5 87q0 17 9 29t23 12t23 -12t9 -29q0 -24 -16.5 -35.5t-32.5 1.5q6 -31 25 -52t48 -21v-15zM12 0v15h75v379h-75v15h165v-394h75v-15h-240z" />
    <glyph glyph-name="iacute" unicode="&#xed;" horiz-adv-x="264" 
d="M89 443v15q29 0 48 21t25 52q-16 -13 -32.5 -1.5t-16.5 35.5q0 17 9 29t23 12q12 0 22 -10.5t10 -27.5q0 -25 -5.5 -48t-16.5 -40t-27.5 -27.5t-38.5 -9.5zM12 0v15h75v379h-75v15h165v-394h75v-15h-240z" />
    <glyph glyph-name="icircumflex" unicode="&#xee;" horiz-adv-x="264" 
d="M169 540l-37 47q-15 -20 -22.5 -29t-10.5 -12.5l-3 -3.5l-1 -1q-2 2 -3 3.5t-3 3.5l-3 3l46 58l46 -58zM12 0v15h75v379h-75v15h165v-394h75v-15h-240z" />
    <glyph glyph-name="idieresis" unicode="&#xef;" horiz-adv-x="264" 
d="M183 525q-14 0 -23 11.5t-9 28.5q0 18 9 29.5t23 11.5q13 0 22.5 -12t9.5 -29t-9.5 -28.5t-22.5 -11.5zM80 525q-14 0 -23 11.5t-9 28.5t9 29t23 12q13 0 22.5 -12t9.5 -29t-9.5 -28.5t-22.5 -11.5zM12 0v15h75v379h-75v15h165v-394h75v-15h-240z" />
    <glyph glyph-name="ntilde" unicode="&#xf1;" horiz-adv-x="504" 
d="M291 492q-19 0 -28 17t-16 35q-3 7 -6 15t-7 15t-9 11.5t-12 4.5q-11 0 -20.5 -15.5t-14.5 -32.5l-12 4q5 20 17 39.5t30 19.5q19 0 28 -17t16 -35q5 -13 12.5 -29.5t21.5 -16.5q11 0 20.5 15.5t14.5 33.5l12 -5q-5 -20 -17 -39.5t-30 -19.5zM248 0v15h77v378
q-19 -1 -39 -9.5t-39 -21.5t-36.5 -29.5t-31.5 -32.5v-300h-167v15h77v379h-77v15h167v-89q15 16 33 32t37.5 29t40.5 20.5t41 7.5q37 0 61 -29.5t24 -76.5l-1 -288h77v-15h-244z" />
    <glyph glyph-name="ograve" unicode="&#xf2;" horiz-adv-x="348" 
d="M90 565q0 17 9 29t23 12t23 -12t9 -29q0 -24 -16.5 -35.5t-32.5 1.5q6 -31 25 -52t48 -21v-15q-42 0 -65 35t-23 87zM174 0q-33 0 -62 16.5t-51.5 44.5t-35.5 65t-13 78q0 42 13 79.5t35 65.5t51.5 44t62.5 16q34 0 63.5 -16t51.5 -44t34.5 -65.5t12.5 -79.5t-13 -79
t-35 -65t-51.5 -44t-62.5 -16zM246 303q0 38 -21 64.5t-51 26.5q-15 0 -28 -7t-22.5 -19.5t-15.5 -29t-6 -35.5v-197q0 -38 21 -64.5t51 -26.5t51 26.5t21 64.5v197z" />
    <glyph glyph-name="oacute" unicode="&#xf3;" horiz-adv-x="348" 
d="M170 443v15q29 0 48 21t25 52q-16 -13 -32.5 -1.5t-16.5 35.5q0 17 9.5 29t22.5 12q14 0 23 -12t9 -29q0 -52 -22.5 -87t-65.5 -35zM174 0q-33 0 -62 16.5t-51.5 44.5t-35.5 65t-13 78q0 42 13 79.5t35 65.5t51.5 44t62.5 16q34 0 63.5 -16t51.5 -44t34.5 -65.5
t12.5 -79.5t-13 -79t-35 -65t-51.5 -44t-62.5 -16zM246 303q0 38 -21 64.5t-51 26.5q-15 0 -28 -7t-22.5 -19.5t-15.5 -29t-6 -35.5v-197q0 -38 21 -64.5t51 -26.5t51 26.5t21 64.5v197z" />
    <glyph glyph-name="ocircumflex" unicode="&#xf4;" horiz-adv-x="348" 
d="M251 491l-77 96q-33 -41 -48 -60t-20 -25.5l-5 -6.5l-2 -4l-10 10l85 108l85 -108zM174 0q-33 0 -62 16.5t-51.5 44.5t-35.5 65t-13 78q0 42 13 79.5t35 65.5t51.5 44t62.5 16q34 0 63.5 -16t51.5 -44t34.5 -65.5t12.5 -79.5t-13 -79t-35 -65t-51.5 -44t-62.5 -16z
M246 303q0 38 -21 64.5t-51 26.5q-15 0 -28 -7t-22.5 -19.5t-15.5 -29t-6 -35.5v-197q0 -38 21 -64.5t51 -26.5t51 26.5t21 64.5v197z" />
    <glyph glyph-name="otilde" unicode="&#xf5;" horiz-adv-x="348" 
d="M213 492q-19 0 -28 17t-16 35q-5 14 -12.5 30t-21.5 16q-11 0 -20 -15.5t-14 -32.5l-12 4q5 21 17 40.5t29 19.5q19 0 28.5 -17.5t15.5 -34.5q5 -14 12.5 -30.5t21.5 -16.5q11 0 20.5 15.5t14.5 33.5l11 -5q-5 -20 -16.5 -39.5t-29.5 -19.5zM174 0q-33 0 -62 16.5
t-51.5 44.5t-35.5 65t-13 78q0 42 13 79.5t35 65.5t51.5 44t62.5 16q34 0 63.5 -16t51.5 -44t34.5 -65.5t12.5 -79.5t-13 -79t-35 -65t-51.5 -44t-62.5 -16zM246 303q0 38 -21 64.5t-51 26.5q-15 0 -28 -7t-22.5 -19.5t-15.5 -29t-6 -35.5v-197q0 -38 21 -64.5t51 -26.5
t51 26.5t21 64.5v197z" />
    <glyph glyph-name="odieresis" unicode="&#xf6;" horiz-adv-x="348" 
d="M226 525q-13 0 -22.5 11.5t-9.5 28.5t9 29t23 12t23 -12t9 -29t-9 -28.5t-23 -11.5zM122 525q-13 0 -22.5 11.5t-9.5 28.5t9 29t23 12t23 -12t9 -29t-9 -28.5t-23 -11.5zM174 0q-33 0 -62 16.5t-51.5 44.5t-35.5 65t-13 78q0 42 13 79.5t35 65.5t51.5 44t62.5 16
q34 0 63.5 -16t51.5 -44t34.5 -65.5t12.5 -79.5t-13 -79t-35 -65t-51.5 -44t-62.5 -16zM246 303q0 38 -21 64.5t-51 26.5q-15 0 -28 -7t-22.5 -19.5t-15.5 -29t-6 -35.5v-197q0 -38 21 -64.5t51 -26.5t51 26.5t21 64.5v197z" />
    <glyph glyph-name="divide" unicode="&#xf7;" horiz-adv-x="368" 
d="M184 293q-19 0 -32 16.5t-13 39.5t13 40t32 17t32 -17t13 -40t-13 -39.5t-32 -16.5zM24 195v15h320v-15h-320zM184 0q-19 0 -32 16.5t-13 39.5t13 40t32 17t32 -17t13 -40t-13 -39.5t-32 -16.5z" />
    <glyph glyph-name="oslash" unicode="&#xf8;" horiz-adv-x="348" 
d="M174 0q-30 0 -59 14.5t-51 39.5l-44 -54l-9 10l45 55q-21 28 -32.5 64t-11.5 74q0 42 13 79t35 64.5t51.5 43.5t62.5 16q31 0 59.5 -14.5t50.5 -40.5l45 56l8 -11l-44 -55q21 -29 32 -64.5t11 -73.5q0 -45 -12 -82.5t-33.5 -64t-51.5 -41.5t-65 -15zM174 390
q-30 0 -51 -26t-21 -64v-176l144 179q-1 37 -22 62t-50 25zM246 282l-144 -180q2 -37 22 -62t50 -25t51 26t21 64v177z" />
    <glyph glyph-name="ugrave" unicode="&#xf9;" horiz-adv-x="424" 
d="M255 443q-21 0 -37.5 11t-27.5 29t-17 40.5t-6 43.5q0 17 10 28t22 11q14 0 23 -12t9 -29q0 -23 -16 -34.5t-32 -0.5q8 -28 26.5 -50t45.5 -22v-15zM179 51q0 -16 10 -26t23 -10q22 0 42.5 8.5t36 24.5t24.5 39t9 52v254h-77v16h165v-16h-76v-254q0 -32 -10 -58t-27 -44
t-39 -27.5t-46 -9.5q-23 0 -45.5 10t-40.5 28t-29 43.5t-11 57.5v254h-76v16h167v-358z" />
    <glyph glyph-name="uacute" unicode="&#xfa;" horiz-adv-x="424" 
d="M169 443v15q13 -1 24.5 5t20.5 16t16 23.5t11 27.5q-8 -6 -16.5 -5.5t-15.5 5.5t-11.5 14t-4.5 21q0 17 9 29t23 12q12 0 22 -11t10 -28q0 -21 -6 -43.5t-17 -40.5t-27.5 -29t-37.5 -11zM336 393v-254q0 -33 -10 -59t-27.5 -44t-40 -27t-46.5 -9q-23 0 -45 10t-39.5 28
t-28.5 43.5t-11 57.5v254h-76v16h167v-358q0 -17 11 -26.5t24 -9.5q22 0 42 8.5t35 25t24 39t9 51.5v254h-77v16h165v-16h-76z" />
    <glyph glyph-name="ucircumflex" unicode="&#xfb;" horiz-adv-x="424" 
d="M288 491l-76 96q-33 -41 -48 -60t-20.5 -26t-5.5 -6.5t-3 -2.5l-9 9l86 108l85 -108zM336 394v-255q0 -33 -10 -59t-27.5 -44t-40 -27t-46.5 -9q-23 0 -45 10t-39.5 28t-28.5 43.5t-11 57.5v255h-76v15h167v-358q0 -15 10.5 -25.5t22.5 -10.5q22 0 42.5 8.5t36 24.5
t24.5 39t9 52v255h-77v15h165v-15h-76z" />
    <glyph glyph-name="udieresis" unicode="&#xfc;" horiz-adv-x="424" 
d="M336 394v-255q0 -33 -10 -59t-27.5 -44t-40 -27t-46.5 -9q-23 0 -45.5 10t-40 28t-28 43.5t-10.5 57.5v255h-76v15h167v-358q0 -18 10.5 -27t24.5 -9q22 0 42 8.5t35 25t24 39t9 51.5v255h-77v15h165v-15h-76zM267 525q-13 0 -22.5 11.5t-9.5 28.5t9.5 28.5t22.5 11.5
q14 0 23.5 -11.5t9.5 -28.5t-9.5 -28.5t-23.5 -11.5zM163 525q-14 0 -23.5 11t-9.5 28q0 18 9 29.5t24 11.5q13 0 22.5 -11.5t9.5 -28.5t-9.5 -28.5t-22.5 -11.5z" />
    <glyph glyph-name="yacute" unicode="&#xfd;" horiz-adv-x="505" 
d="M250 441v15q27 1 45.5 22t26.5 50q-16 -11 -32 0.5t-16 35.5q0 17 9 28.5t23 11.5t23 -11.5t9 -28.5q0 -24 -6.5 -46.5t-18 -39t-27.5 -27t-36 -10.5zM414 392l-233 -586q-6 -16 -16.5 -34t-24 -33.5t-29 -25.5t-31.5 -10q-19 0 -32 9t-21 24t-11.5 34t-3.5 39
q0 23 13 40t32 17t32.5 -17t13.5 -40q0 -18 -7.5 -31.5t-18.5 -20t-23.5 -5.5t-23.5 12q5 -21 17.5 -33.5t32.5 -12.5q13 0 26.5 9t25.5 23.5t22 31t16 31.5l77 192l-154 387h-79v16h244v-16h-73l108 -271l108 271h-73v16h165v-16h-79z" />
    <glyph glyph-name="ydieresis" unicode="&#xff;" horiz-adv-x="505" 
d="M306 523q-14 0 -23 12t-9 29t9 28.5t23 11.5t23 -11.5t9 -28.5t-9 -29t-23 -12zM201 523q-13 0 -22.5 12t-9.5 29t9.5 28.5t22.5 11.5q14 0 23.5 -11.5t9.5 -28.5t-9.5 -29t-23.5 -12zM414 392l-233 -586q-6 -16 -16.5 -34t-24 -33.5t-29 -25.5t-31.5 -10q-19 0 -32 9
t-21 24t-11.5 34t-3.5 39q0 23 13.5 40t31.5 17q19 0 32.5 -17t13.5 -40t-13.5 -40t-32.5 -17q-15 0 -27 12q5 -21 17.5 -33.5t32.5 -12.5q13 0 26.5 9t25.5 23.5t22 31t16 31.5l77 192l-154 387h-79v16h244v-16h-73l108 -271l108 271h-73v16h165v-16h-79z" />
    </font>
</defs>
</svg>
